<svg width="74" height="74" viewBox="0 0 74 74" fill="none" xmlns="http://www.w3.org/2000/svg">
<g filter="url(#filter0_d_6849_10099)">
<circle cx="33" cy="33" r="33" fill="#09609E"/>
</g>
<g clip-path="url(#clip0_6849_10099)">
<path d="M43.4375 21.8304H41.2092C40.846 18.5535 38.0592 15.9971 34.6875 15.9971H21.5625C17.9444 15.9971 15 18.9414 15 22.5596V42.7633C15 43.6515 15.4856 44.4637 16.2702 44.8823C16.626 45.0733 17.0154 45.1667 17.4033 45.1667C17.8685 45.1667 18.3338 45.031 18.7363 44.7627L23.8754 41.3371C24.4719 44.3456 27.1319 46.6206 30.3125 46.6206H40.3006L46.2638 50.596C46.6663 50.8658 47.13 51 47.5967 51C47.9846 51 48.374 50.9067 48.7298 50.7156C49.5129 50.2971 50 49.4848 50 48.5967V28.3929C50 24.7748 47.0556 21.8304 43.4375 21.8304ZM17.9269 43.5508C17.6308 43.7477 17.2706 43.7667 16.9571 43.5975C16.645 43.4312 16.4583 43.1192 16.4583 42.7648V22.5596C16.4583 19.745 18.7479 17.4554 21.5625 17.4554H34.6875C37.5021 17.4554 39.7917 19.745 39.7917 22.5596V34.2262C39.7917 37.0408 37.5021 39.3304 34.6875 39.3304H24.571C24.3465 39.3304 24.1554 39.4092 24.0679 39.4573L17.9269 43.5508ZM48.5417 48.5981C48.5417 48.9525 48.355 49.2646 48.0429 49.4308C47.7308 49.5985 47.3677 49.5796 47.0731 49.3842L40.9263 45.2862C40.8067 45.206 40.6652 45.1637 40.5223 45.1637H30.314C27.7473 45.1637 25.6167 43.2592 25.2623 40.7887H34.689C38.3071 40.7887 41.2515 37.8444 41.2515 34.2262V23.2887H43.439C46.2535 23.2887 48.5431 25.5783 48.5431 28.3929V48.5967L48.5417 48.5981Z" fill="white"/>
</g>
<defs>
<filter id="filter0_d_6849_10099" x="0" y="0" width="74" height="74" filterUnits="userSpaceOnUse" color-interpolation-filters="sRGB">
<feFlood flood-opacity="0" result="BackgroundImageFix"/>
<feColorMatrix in="SourceAlpha" type="matrix" values="0 0 0 0 0 0 0 0 0 0 0 0 0 0 0 0 0 0 127 0" result="hardAlpha"/>
<feOffset dx="4" dy="4"/>
<feGaussianBlur stdDeviation="2"/>
<feComposite in2="hardAlpha" operator="out"/>
<feColorMatrix type="matrix" values="0 0 0 0 0.4 0 0 0 0 0.4 0 0 0 0 0.4 0 0 0 0.15 0"/>
<feBlend mode="normal" in2="BackgroundImageFix" result="effect1_dropShadow_6849_10099"/>
<feBlend mode="normal" in="SourceGraphic" in2="effect1_dropShadow_6849_10099" result="shape"/>
</filter>
<clipPath id="clip0_6849_10099">
<rect width="35" height="35" fill="white" transform="translate(15 16)"/>
</clipPath>
</defs>
</svg>
