<svg width="75" height="75" viewBox="0 0 75 75" fill="none" xmlns="http://www.w3.org/2000/svg">
<g filter="url(#filter0_d_6849_10090)">
<g filter="url(#filter1_f_6849_10090)">
<circle cx="34" cy="34" r="33" fill="#09609E"/>
</g>
</g>
<g clip-path="url(#clip0_6849_10090)">
<path d="M35.6875 49.5421H22.5625C19.7479 49.5421 17.4583 47.2525 17.4583 44.4379V22.5629C17.4583 19.7484 19.7479 17.4588 22.5625 17.4588H30.6052C31.0938 17.4588 31.5721 17.5142 32.0417 17.5988V25.4796C32.0417 27.4892 33.6779 29.1254 35.6875 29.1254H43.5465C43.5946 29.3879 43.6602 29.6461 43.6806 29.9144C43.7142 30.3154 44.0758 30.6129 44.4667 30.5823C44.8677 30.5502 45.1667 30.1973 45.1346 29.7963C44.9523 27.5563 43.9781 25.449 42.3885 23.8608L37.3062 18.7786C35.5154 16.9877 33.1354 16.0019 30.6038 16.0019H22.5625C18.9444 16.0004 16 18.9448 16 22.5629V44.4379C16 48.0561 18.9444 51.0004 22.5625 51.0004H35.6875C36.09 51.0004 36.4167 50.6738 36.4167 50.2713C36.4167 49.8688 36.09 49.5421 35.6875 49.5421ZM41.359 24.8904C42.1508 25.6823 42.7356 26.6375 43.1367 27.6671H35.6875C34.4815 27.6671 33.5 26.6856 33.5 25.4796V18.0115C34.5267 18.4096 35.4746 19.0061 36.2767 19.8067L41.359 24.889V24.8904ZM50.7856 49.755L43.1221 42.0915L46.466 38.7475L47.1004 39.3819C47.7596 40.0615 48.8096 39.01 48.1315 38.3508L41.3065 31.5258C41.0221 31.2415 40.5598 31.2415 40.2754 31.5258C39.991 31.8102 39.991 32.2725 40.2754 32.5569L40.8719 33.1533L33.1529 40.8723L32.5565 40.2758C32.2721 39.9915 31.8098 39.9915 31.5254 40.2758C31.241 40.5602 31.241 41.0225 31.5254 41.3069L38.3504 48.1319C39.0096 48.8115 40.0596 47.76 39.3815 47.1008L38.7471 46.4665L42.091 43.1225L49.7546 50.7861C50.4137 51.4656 51.4638 50.4142 50.7856 49.755ZM34.184 41.9033L41.9029 34.1844L45.435 37.7165L37.716 45.4354L34.184 41.9033ZM21.8333 28.3963C21.8333 27.9938 22.16 27.6671 22.5625 27.6671H28.3958C28.7983 27.6671 29.125 27.9938 29.125 28.3963C29.125 28.7988 28.7983 29.1254 28.3958 29.1254H22.5625C22.16 29.1254 21.8333 28.7988 21.8333 28.3963ZM35.6875 33.5004H22.5625C22.16 33.5004 21.8333 33.1738 21.8333 32.7713C21.8333 32.3688 22.16 32.0421 22.5625 32.0421H35.6875C36.09 32.0421 36.4167 32.3688 36.4167 32.7713C36.4167 33.1738 36.09 33.5004 35.6875 33.5004ZM31.3125 37.8754H22.5625C22.16 37.8754 21.8333 37.5488 21.8333 37.1463C21.8333 36.7438 22.16 36.4171 22.5625 36.4171H31.3125C31.715 36.4171 32.0417 36.7438 32.0417 37.1463C32.0417 37.5488 31.715 37.8754 31.3125 37.8754ZM26.9375 40.7921C27.34 40.7921 27.6667 41.1188 27.6667 41.5213C27.6667 41.9238 27.34 42.2504 26.9375 42.2504H22.5625C22.16 42.2504 21.8333 41.9238 21.8333 41.5213C21.8333 41.1188 22.16 40.7921 22.5625 40.7921H26.9375Z" fill="white"/>
</g>
<defs>
<filter id="filter0_d_6849_10090" x="1" y="1" width="74" height="74" filterUnits="userSpaceOnUse" color-interpolation-filters="sRGB">
<feFlood flood-opacity="0" result="BackgroundImageFix"/>
<feColorMatrix in="SourceAlpha" type="matrix" values="0 0 0 0 0 0 0 0 0 0 0 0 0 0 0 0 0 0 127 0" result="hardAlpha"/>
<feOffset dx="4" dy="4"/>
<feGaussianBlur stdDeviation="2"/>
<feComposite in2="hardAlpha" operator="out"/>
<feColorMatrix type="matrix" values="0 0 0 0 0.4 0 0 0 0 0.4 0 0 0 0 0.4 0 0 0 0.15 0"/>
<feBlend mode="normal" in2="BackgroundImageFix" result="effect1_dropShadow_6849_10090"/>
<feBlend mode="normal" in="SourceGraphic" in2="effect1_dropShadow_6849_10090" result="shape"/>
</filter>
<filter id="filter1_f_6849_10090" x="0" y="0" width="68" height="68" filterUnits="userSpaceOnUse" color-interpolation-filters="sRGB">
<feFlood flood-opacity="0" result="BackgroundImageFix"/>
<feBlend mode="normal" in="SourceGraphic" in2="BackgroundImageFix" result="shape"/>
<feGaussianBlur stdDeviation="0.5" result="effect1_foregroundBlur_6849_10090"/>
</filter>
<clipPath id="clip0_6849_10090">
<rect width="35" height="35" fill="white" transform="translate(16 16)"/>
</clipPath>
</defs>
</svg>
