<svg width="74" height="74" viewBox="0 0 74 74" fill="none" xmlns="http://www.w3.org/2000/svg">
<g filter="url(#filter0_d_6849_10095)">
<circle cx="33" cy="33" r="33" fill="#09609E"/>
</g>
<g clip-path="url(#clip0_6849_10095)">
<path d="M48.7935 42.25C48.7935 41.8504 48.7498 41.4465 48.6565 41.0104L50.8819 39.7023L48.6637 35.931L46.4529 37.2319C45.8579 36.736 45.1667 36.3481 44.4171 36.0856V33.5029H40.0421V36.0856C39.291 36.3481 38.6012 36.736 38.0062 37.2319L35.7954 35.931L33.5773 39.7023L35.8027 41.0104C35.7108 41.4465 35.6656 41.8504 35.6656 42.25C35.6656 42.6496 35.7094 43.0535 35.8027 43.4896L33.5773 44.7977L35.7954 48.569L38.0062 47.2681C38.6012 47.764 39.2925 48.1519 40.0421 48.4144V50.9971H44.4171V48.4144C45.1681 48.1519 45.8579 47.764 46.4529 47.2681L48.6637 48.569L50.8819 44.7977L48.6565 43.4896C48.7483 43.0535 48.7935 42.6496 48.7935 42.25ZM48.8854 45.3169L48.146 46.574L46.205 45.4131C45.4131 46.4048 44.2727 47.0902 42.9602 47.2813V49.5431H41.5019V47.2813C40.1967 47.0917 39.0621 46.4135 38.2702 45.4306L36.3146 46.574L35.5752 45.3169L37.5119 44.1852C37.2654 43.5873 37.1254 42.9354 37.1254 42.25C37.1254 41.5733 37.264 40.9288 37.5046 40.3367L35.5737 39.1831L36.3131 37.926L38.2542 39.0869C39.046 38.0952 40.1865 37.4098 41.499 37.2188V34.9569H42.9573V37.2188C44.2742 37.4098 45.4175 38.0981 46.2094 39.0942L48.1446 37.9246L48.884 39.1817L46.9575 40.3454C47.1952 40.9346 47.3337 41.5748 47.3337 42.2485C47.3337 42.9267 47.1952 43.5698 46.9546 44.1619L48.8854 45.3154V45.3169ZM42.231 39.3333C40.6225 39.3333 39.3144 40.6415 39.3144 42.25C39.3144 43.8585 40.6225 45.1667 42.231 45.1667C43.8396 45.1667 45.1477 43.8585 45.1477 42.25C45.1477 40.6415 43.8396 39.3333 42.231 39.3333ZM42.231 43.7083C41.426 43.7083 40.7727 43.0535 40.7727 42.25C40.7727 41.4465 41.426 40.7917 42.231 40.7917C43.036 40.7917 43.6894 41.4465 43.6894 42.25C43.6894 43.0535 43.036 43.7083 42.231 43.7083ZM31.3125 33.5C32.205 33.5 33.0071 33.8631 33.5948 34.4465C33.2652 34.8125 32.9531 35.1931 32.6717 35.5985C32.3377 35.2135 31.8608 34.9583 31.3125 34.9583C30.3077 34.9583 29.4896 35.7765 29.4896 36.7813C29.4896 36.9592 29.5538 37.6023 29.9825 39.9298L30.1415 40.7917H25.4792C23.4696 40.7917 21.8333 39.1569 21.8333 37.1458V34.2321C20.0279 34.5529 19.5102 34.5938 19.2812 34.5938C17.4715 34.5938 16 33.1208 16 31.3125C16 29.5042 17.4715 28.0313 19.2812 28.0313C19.5102 28.0313 20.0279 28.0721 21.8333 28.3929V25.4792C21.8333 23.4681 23.4696 21.8333 25.4792 21.8333H28.3929C28.0735 20.0265 28.0312 19.5088 28.0312 19.2813C28.0312 17.4729 29.5027 16 31.3125 16C33.1223 16 34.5937 17.4729 34.5937 19.2813C34.5937 19.5277 34.5485 20.0469 34.2321 21.8333H37.1458C39.1554 21.8333 40.7917 23.4681 40.7917 25.4792V30.684C40.2944 30.7467 39.8087 30.8429 39.3333 30.9654V25.4792C39.3333 24.2731 38.3519 23.2917 37.1458 23.2917H32.4835L32.6425 22.4298C33.0712 20.0994 33.1354 19.4577 33.1354 19.2813C33.1354 18.2765 32.3173 17.4583 31.3125 17.4583C30.3077 17.4583 29.4896 18.2765 29.4896 19.2813C29.4896 19.4592 29.5538 20.1023 29.9825 22.4298L30.1415 23.2917H25.4792C24.2731 23.2917 23.2917 24.2731 23.2917 25.4792V30.1415L22.4298 29.9825C20.0177 29.5377 19.4242 29.4896 19.2812 29.4896C18.2765 29.4896 17.4583 30.3077 17.4583 31.3125C17.4583 32.3173 18.2765 33.1354 19.2812 33.1354C19.4242 33.1354 20.0177 33.0873 22.4298 32.6425L23.2917 32.4835V37.1458C23.2917 38.3519 24.2731 39.3333 25.4792 39.3333H28.3915C28.0721 37.5265 28.0298 37.0088 28.0298 36.7813C28.0298 34.9729 29.5012 33.5 31.311 33.5H31.3125Z" fill="white"/>
</g>
<defs>
<filter id="filter0_d_6849_10095" x="0" y="0" width="74" height="74" filterUnits="userSpaceOnUse" color-interpolation-filters="sRGB">
<feFlood flood-opacity="0" result="BackgroundImageFix"/>
<feColorMatrix in="SourceAlpha" type="matrix" values="0 0 0 0 0 0 0 0 0 0 0 0 0 0 0 0 0 0 127 0" result="hardAlpha"/>
<feOffset dx="4" dy="4"/>
<feGaussianBlur stdDeviation="2"/>
<feComposite in2="hardAlpha" operator="out"/>
<feColorMatrix type="matrix" values="0 0 0 0 0.4 0 0 0 0 0.4 0 0 0 0 0.4 0 0 0 0.15 0"/>
<feBlend mode="normal" in2="BackgroundImageFix" result="effect1_dropShadow_6849_10095"/>
<feBlend mode="normal" in="SourceGraphic" in2="effect1_dropShadow_6849_10095" result="shape"/>
</filter>
<clipPath id="clip0_6849_10095">
<rect width="35" height="35" fill="white" transform="translate(16 16)"/>
</clipPath>
</defs>
</svg>
