<svg width="74" height="74" viewBox="0 0 74 74" fill="none" xmlns="http://www.w3.org/2000/svg">
<g filter="url(#filter0_d_6849_10103)">
<circle cx="33" cy="33" r="33" fill="#09609E"/>
</g>
<g clip-path="url(#clip0_6849_10103)">
<path d="M22.2917 45.1667C22.2917 45.645 22.3369 46.1335 22.4156 46.625H20.9558C20.8888 46.135 20.8333 45.6479 20.8333 45.1667C20.8333 38.734 26.0673 33.5 32.5 33.5C34.3885 33.5 36.1692 33.9608 37.7485 34.7615L36.6577 35.8523C35.386 35.2821 33.9817 34.9583 32.5 34.9583C26.8708 34.9583 22.2917 39.539 22.2917 45.1667ZM44.0442 46.625C44.1113 46.135 44.1667 45.6479 44.1667 45.1667C44.1667 43.2781 43.7058 41.4975 42.9052 39.9181L41.8144 41.009C42.3846 42.2806 42.7083 43.685 42.7083 45.1667C42.7083 45.645 42.6631 46.1335 42.5844 46.625H44.0442ZM35.004 43.6938C35.2606 44.1269 35.4167 44.6271 35.4167 45.1667C35.4167 46.7752 34.1085 48.0833 32.5 48.0833C30.8915 48.0833 29.5833 46.7752 29.5833 45.1667C29.5833 43.5581 30.8915 42.25 32.5 42.25C33.0396 42.25 33.5383 42.4075 33.9729 42.6627L40.7352 35.9004L41.7663 36.9315L35.004 43.6938ZM33.9583 45.1667C33.9583 44.3617 33.3035 43.7083 32.5 43.7083C31.6965 43.7083 31.0417 44.3617 31.0417 45.1667C31.0417 45.9717 31.6965 46.625 32.5 46.625C33.3035 46.625 33.9583 45.9717 33.9583 45.1667ZM44.1667 32.1598V22.2592L47.655 25.7475L48.686 24.7165L44.7894 20.8198C44.0427 20.0731 42.8308 20.0717 42.0856 20.8198L38.189 24.7165L39.22 25.7475L42.7083 22.2592V30.9815C40.0163 29.039 36.7583 27.8504 33.2292 27.7031V17.8842L36.7175 21.3725L37.7485 20.3415L33.8519 16.4463C33.1052 15.6996 31.8933 15.6981 31.1481 16.4463L27.2515 20.3429L28.2825 21.374L31.7708 17.8856V27.7046C28.2417 27.8504 24.9838 29.0404 22.2917 30.9829V22.2606L25.78 25.749L26.811 24.7179L22.9144 20.8213C22.1677 20.0746 20.9558 20.0731 20.2106 20.8213L16.314 24.7179L17.345 25.749L20.8333 22.2606V32.1613C17.2633 35.3652 15 40.0013 15 45.1667C15 46.9079 15.2975 48.7031 15.8852 50.4969L16.05 51H25.2083V49.5417H17.116C16.68 48.0615 16.4583 46.5929 16.4583 45.1667C16.4583 36.3219 23.6552 29.125 32.5 29.125C41.3448 29.125 48.5417 36.3219 48.5417 45.1667C48.5417 46.5929 48.3215 48.0615 47.884 49.5417H39.7917V51H48.95L49.1148 50.4969C49.7025 48.7031 50 46.9079 50 45.1667C50 40.0013 47.7367 35.3652 44.1667 32.1598Z" fill="white"/>
</g>
<defs>
<filter id="filter0_d_6849_10103" x="0" y="0" width="74" height="74" filterUnits="userSpaceOnUse" color-interpolation-filters="sRGB">
<feFlood flood-opacity="0" result="BackgroundImageFix"/>
<feColorMatrix in="SourceAlpha" type="matrix" values="0 0 0 0 0 0 0 0 0 0 0 0 0 0 0 0 0 0 127 0" result="hardAlpha"/>
<feOffset dx="4" dy="4"/>
<feGaussianBlur stdDeviation="2"/>
<feComposite in2="hardAlpha" operator="out"/>
<feColorMatrix type="matrix" values="0 0 0 0 0.4 0 0 0 0 0.4 0 0 0 0 0.4 0 0 0 0.15 0"/>
<feBlend mode="normal" in2="BackgroundImageFix" result="effect1_dropShadow_6849_10103"/>
<feBlend mode="normal" in="SourceGraphic" in2="effect1_dropShadow_6849_10103" result="shape"/>
</filter>
<clipPath id="clip0_6849_10103">
<rect width="35" height="35" fill="white" transform="translate(15 16)"/>
</clipPath>
</defs>
</svg>
