<svg width="74" height="74" viewBox="0 0 74 74" fill="none" xmlns="http://www.w3.org/2000/svg">
<g filter="url(#filter0_d_6849_10062)">
<circle cx="33" cy="33" r="33" fill="#09609E"/>
</g>
<g clip-path="url(#clip0_6849_10062)">
<path d="M32.5012 33.5C34.9132 33.5 36.8762 31.5371 36.8762 29.125C36.8762 26.7129 34.9132 24.75 32.5012 24.75C30.0891 24.75 28.1262 26.7129 28.1262 29.125C28.1262 31.5371 30.0891 33.5 32.5012 33.5ZM32.5012 26.2083C34.1097 26.2083 35.4178 27.5165 35.4178 29.125C35.4178 30.7335 34.1097 32.0417 32.5012 32.0417C30.8926 32.0417 29.5845 30.7335 29.5845 29.125C29.5845 27.5165 30.8926 26.2083 32.5012 26.2083ZM39.0345 39.0081C39.2139 39.3698 39.0666 39.8058 38.7064 39.9852C38.6014 40.0377 38.492 40.061 38.3826 40.061C38.1143 40.061 37.8562 39.9123 37.7293 39.6571C36.7362 37.6577 34.7324 36.4152 32.5026 36.4152C30.3107 36.4152 28.3245 37.6256 27.3168 39.574C27.133 39.9312 26.6912 40.0712 26.3339 39.8875C25.9751 39.7023 25.8366 39.2619 26.0203 38.9046C27.2789 36.4692 29.7624 34.9569 32.5012 34.9569C35.2895 34.9569 37.7934 36.5085 39.0345 39.0067V39.0081ZM46.3539 37.1531L45.2616 36.5348C45.5037 35.5256 45.6262 34.5077 45.6262 33.4985C45.6262 32.4894 45.5037 31.4715 45.2616 30.4623L46.3524 29.8454C47.1997 29.3656 47.8093 28.584 48.0689 27.6462C48.3284 26.7085 48.2074 25.7242 47.7276 24.8769C47.2478 24.0296 46.4676 23.4185 45.5285 23.159C44.5893 22.8965 43.6064 23.019 42.7591 23.5002L41.6639 24.12C40.1137 22.6033 38.2237 21.5023 36.1455 20.9015V19.6444C36.1455 17.6348 34.5093 15.9985 32.4997 15.9985C30.4901 15.9985 28.8539 17.6348 28.8539 19.6444V20.9015C26.7757 21.5023 24.8872 22.6033 23.3355 24.12L22.2403 23.5002C21.3916 23.0204 20.4087 22.8994 19.4709 23.159C18.5318 23.4185 17.7516 24.0296 17.2718 24.8754C16.792 25.7242 16.6709 26.7071 16.9305 27.6448C17.1901 28.5825 17.7997 29.3642 18.6484 29.844L19.7393 30.4608C19.4972 31.47 19.3747 32.4894 19.3747 33.4971C19.3747 34.5048 19.4972 35.5242 19.7393 36.5333L18.647 37.1517C16.8984 38.1433 16.2816 40.3717 17.2718 42.1202C18.262 43.8687 20.4889 44.4885 22.2403 43.4969L23.3355 42.8771C24.8872 44.3952 26.7757 45.4962 28.8539 46.0956V47.3527C28.8539 49.3623 30.4901 50.9985 32.4997 50.9985C34.5093 50.9985 36.1455 49.3623 36.1455 47.3527V46.0956C38.2222 45.4962 40.1122 44.3937 41.6639 42.8771L42.7591 43.4969C44.5062 44.4871 46.7374 43.8687 47.7276 42.1202C48.7178 40.3717 48.0995 38.1419 46.3524 37.1517L46.3539 37.1531ZM46.4603 41.4042C45.8668 42.4512 44.5266 42.8217 43.4795 42.2296L41.8972 41.3327C41.6055 41.1665 41.2366 41.2233 41.0062 41.4683C39.4457 43.1323 37.4537 44.2946 35.2472 44.8269C34.9205 44.9056 34.6901 45.1987 34.6901 45.5356V47.3542C34.6901 48.5602 33.7087 49.5417 32.5026 49.5417C31.2966 49.5417 30.3151 48.5602 30.3151 47.3542V45.5356C30.3151 45.1987 30.0847 44.9056 29.758 44.8269C27.5516 44.2931 25.5595 43.1323 23.9991 41.4683C23.8576 41.3167 23.6637 41.2379 23.4668 41.2379C23.3443 41.2379 23.2203 41.2685 23.1066 41.3327L21.5243 42.2296C20.4757 42.8231 19.137 42.4527 18.542 41.4042C17.9484 40.3542 18.3189 39.0169 19.3674 38.4219L20.9468 37.5279C21.2399 37.3617 21.3799 37.0175 21.288 36.6937C20.9862 35.6335 20.833 34.5587 20.833 33.5C20.833 32.4412 20.9862 31.3665 21.288 30.3048C21.3799 29.981 21.2384 29.6369 20.9453 29.4706L19.3674 28.5767C18.8584 28.2879 18.4924 27.8198 18.3364 27.2569C18.1803 26.694 18.2532 26.1033 18.542 25.5944C18.8293 25.0869 19.2989 24.7208 19.8618 24.5648C20.4232 24.4087 21.0139 24.4817 21.5228 24.769L23.1051 25.6658C23.3982 25.8335 23.7672 25.7767 23.9962 25.5302C25.5551 23.8662 27.5472 22.7054 29.7551 22.1717C30.0818 22.0929 30.3122 21.7998 30.3122 21.4629V19.6444C30.3122 18.4383 31.2937 17.4569 32.4997 17.4569C33.7057 17.4569 34.6872 18.4383 34.6872 19.6444V21.4629C34.6872 21.7998 34.9176 22.0929 35.2443 22.1717C37.4522 22.7054 39.4428 23.8662 41.0032 25.5302C41.2337 25.7752 41.6026 25.8321 41.8943 25.6658L43.4766 24.769C43.987 24.4817 44.5791 24.4087 45.1376 24.5648C45.7005 24.7208 46.1701 25.0869 46.4574 25.5958C46.7447 26.1048 46.8191 26.694 46.663 27.2569C46.507 27.8198 46.1409 28.2894 45.632 28.5767L44.0526 29.4706C43.7595 29.6369 43.618 29.981 43.7099 30.3048C44.0118 31.3665 44.1649 32.4412 44.1649 33.5C44.1649 34.5587 44.0118 35.6335 43.7099 36.6937C43.618 37.0175 43.7595 37.3617 44.0512 37.5279L45.6305 38.4219C46.6805 39.0169 47.0509 40.3542 46.4559 41.4042H46.4603Z" fill="white"/>
</g>
<defs>
<filter id="filter0_d_6849_10062" x="0" y="0" width="74" height="74" filterUnits="userSpaceOnUse" color-interpolation-filters="sRGB">
<feFlood flood-opacity="0" result="BackgroundImageFix"/>
<feColorMatrix in="SourceAlpha" type="matrix" values="0 0 0 0 0 0 0 0 0 0 0 0 0 0 0 0 0 0 127 0" result="hardAlpha"/>
<feOffset dx="4" dy="4"/>
<feGaussianBlur stdDeviation="2"/>
<feComposite in2="hardAlpha" operator="out"/>
<feColorMatrix type="matrix" values="0 0 0 0 0.4 0 0 0 0 0.4 0 0 0 0 0.4 0 0 0 0.15 0"/>
<feBlend mode="normal" in2="BackgroundImageFix" result="effect1_dropShadow_6849_10062"/>
<feBlend mode="normal" in="SourceGraphic" in2="effect1_dropShadow_6849_10062" result="shape"/>
</filter>
<clipPath id="clip0_6849_10062">
<rect width="35" height="35" fill="white" transform="translate(15 16)"/>
</clipPath>
</defs>
</svg>
