<svg width="74" height="74" viewBox="0 0 74 74" fill="none" xmlns="http://www.w3.org/2000/svg">
<g filter="url(#filter0_d_6849_10066)">
<circle cx="33" cy="33" r="33" fill="#09609E"/>
</g>
<g clip-path="url(#clip0_6849_10066)">
<path d="M29.5833 50.2708C29.5833 50.6733 29.2567 51 28.8542 51H15.7292C15.3267 51 15 50.6733 15 50.2708C15 49.8683 15.3267 49.5417 15.7292 49.5417H28.8542C29.2567 49.5417 29.5833 49.8683 29.5833 50.2708ZM15.7292 45.1667H25.9375C26.34 45.1667 26.6667 44.84 26.6667 44.4375C26.6667 44.035 26.34 43.7083 25.9375 43.7083H15.7292C15.3267 43.7083 15 44.035 15 44.4375C15 44.84 15.3267 45.1667 15.7292 45.1667ZM15.7292 39.3333H23.0208C23.4233 39.3333 23.75 39.0067 23.75 38.6042C23.75 38.2017 23.4233 37.875 23.0208 37.875H15.7292C15.3267 37.875 15 38.2017 15 38.6042C15 39.0067 15.3267 39.3333 15.7292 39.3333ZM32.5 16C22.8502 16 15 23.8502 15 33.5C15 33.7552 15.0044 34.009 15.016 34.2613C15.0335 34.6638 15.3835 34.9817 15.7758 34.9583C16.1783 34.9408 16.4904 34.5996 16.4729 34.1985C16.4627 33.9667 16.4583 33.7348 16.4583 33.5015C16.4583 24.6552 23.6552 17.4583 32.5 17.4583C41.3448 17.4583 48.5417 24.6552 48.5417 33.5C48.5417 42.1187 41.8027 49.1581 33.1985 49.5271C32.796 49.5446 32.484 49.8844 32.5015 50.2869C32.5175 50.6792 32.8413 50.9854 33.2292 50.9854C33.2394 50.9854 33.251 50.9854 33.2613 50.9854C42.6485 50.5844 50.0015 42.9033 50.0015 33.5015C50 23.8502 42.1498 16 32.5 16ZM33.2292 24.75C32.8267 24.75 32.5 25.0767 32.5 25.4792V33.4927C32.5 33.7435 32.6298 33.9783 32.8413 34.111L38.6746 37.7642C38.7956 37.84 38.9298 37.875 39.0625 37.875C39.3046 37.875 39.5423 37.754 39.6808 37.5338C39.8938 37.1925 39.7902 36.7419 39.4504 36.529L33.9583 33.0902V25.4806C33.9583 25.0781 33.6317 24.75 33.2292 24.75Z" fill="white"/>
</g>
<defs>
<filter id="filter0_d_6849_10066" x="0" y="0" width="74" height="74" filterUnits="userSpaceOnUse" color-interpolation-filters="sRGB">
<feFlood flood-opacity="0" result="BackgroundImageFix"/>
<feColorMatrix in="SourceAlpha" type="matrix" values="0 0 0 0 0 0 0 0 0 0 0 0 0 0 0 0 0 0 127 0" result="hardAlpha"/>
<feOffset dx="4" dy="4"/>
<feGaussianBlur stdDeviation="2"/>
<feComposite in2="hardAlpha" operator="out"/>
<feColorMatrix type="matrix" values="0 0 0 0 0.4 0 0 0 0 0.4 0 0 0 0 0.4 0 0 0 0.15 0"/>
<feBlend mode="normal" in2="BackgroundImageFix" result="effect1_dropShadow_6849_10066"/>
<feBlend mode="normal" in="SourceGraphic" in2="effect1_dropShadow_6849_10066" result="shape"/>
</filter>
<clipPath id="clip0_6849_10066">
<rect width="35" height="35" fill="white" transform="translate(15 16)"/>
</clipPath>
</defs>
</svg>
