<svg width="75" height="75" viewBox="0 0 75 75" fill="none" xmlns="http://www.w3.org/2000/svg">
<g filter="url(#filter0_d_6849_10054)">
<g filter="url(#filter1_f_6849_10054)">
<circle cx="34" cy="34" r="33" fill="#09609E"/>
</g>
</g>
<g clip-path="url(#clip0_6849_10054)">
<path d="M50.8031 42.4803C50.7929 42.4657 49.5417 41.1022 49.5417 39.3332C49.5417 37.5642 50.79 36.1992 50.8031 36.1861C51.2377 35.7486 50.8877 34.9392 50.2708 34.9582H40.0625C39.66 34.9582 39.3333 35.2849 39.3333 35.6874C39.3333 36.0899 39.66 36.4165 40.0625 36.4165H48.8781C48.4756 37.1472 48.0833 38.1607 48.0833 39.3332C48.0833 40.5057 48.4756 41.5192 48.8781 42.2499H20.375C18.7665 42.2499 17.4583 40.9417 17.4583 39.3332C17.4583 37.7247 18.7665 36.4165 20.375 36.4165H26.9375C27.34 36.4165 27.6667 36.0899 27.6667 35.6874C27.6667 35.2849 27.34 34.9582 26.9375 34.9582H20.375C17.9629 34.9582 16 36.9211 16 39.3332C16 40.8557 16.7831 42.1945 17.9658 42.979C16.7831 43.7636 16 45.1024 16 46.6249C16 49.037 17.9629 50.9999 20.375 50.9999H50.2708C50.8892 51.0203 51.2377 50.2109 50.8031 49.772C50.79 49.7588 49.5417 48.3938 49.5417 46.6249C49.5417 44.8559 50.79 43.4909 50.8031 43.4778C50.9475 43.2765 51.086 42.8784 50.8031 42.4803ZM48.8781 49.5415H20.375C18.7665 49.5415 17.4583 48.2334 17.4583 46.6249C17.4583 45.0163 18.7665 43.7082 20.375 43.7082H48.8781C48.4756 44.4388 48.0833 45.4524 48.0833 46.6249C48.0833 47.7974 48.4756 48.8109 48.8781 49.5415ZM29.5333 30.9551C30.1808 31.3226 30.5833 32.0736 30.5833 32.9122V33.7886C30.5833 35.2863 31.6494 36.4165 33.0625 36.4165H33.9375C35.3054 36.4165 36.4167 35.3038 36.4167 33.9374V32.8845C36.4167 32.062 36.8119 31.327 37.4492 30.9667C39.9604 29.5463 41.5208 26.8849 41.5208 24.0222C41.5208 21.5926 40.4373 19.3205 38.5487 17.7892C36.6602 16.2551 34.1869 15.6688 31.7602 16.1836C28.6802 16.834 26.2156 19.357 25.6279 22.4617C24.976 25.902 26.5088 29.2342 29.5333 30.9551ZM34.9583 33.9359C34.9583 34.4988 34.5004 34.9567 33.9375 34.9567H33.0625C32.4704 34.9567 32.0417 34.4653 32.0417 33.7872V32.9107C32.0417 32.6103 31.9965 32.3215 31.9323 32.0386H35.0648C35.005 32.3113 34.9583 32.5913 34.9583 32.8815V33.9359ZM27.06 22.733C27.6112 19.7055 30.4215 17.4072 33.484 17.4611C37.0146 17.3824 40.1369 20.4857 40.0625 24.0207C40.0625 26.3599 38.7865 28.5342 36.7317 29.6965C36.3379 29.9182 36.0215 30.239 35.7488 30.5949C35.7283 30.5934 35.7094 30.5832 35.689 30.5832H34.2306V25.3755C35.4848 25.0488 36.4181 23.9172 36.4181 22.5624C36.4181 22.1599 36.0915 21.8332 35.689 21.8332C35.2865 21.8332 34.9598 22.1599 34.9598 22.5624C34.9598 23.3659 34.305 24.0207 33.5015 24.0207C32.6979 24.0207 32.0431 23.3659 32.0431 22.5624C32.0431 22.1599 31.7165 21.8332 31.314 21.8332C30.9115 21.8332 30.5848 22.1599 30.5848 22.5624C30.5848 23.9172 31.5181 25.0488 32.7723 25.3755V30.5832H31.314C31.2906 30.5832 31.2702 30.5949 31.2454 30.5963C30.9698 30.2361 30.6504 29.9124 30.2538 29.6878C27.779 28.2805 26.5263 25.5505 27.06 22.733Z" fill="white"/>
</g>
<defs>
<filter id="filter0_d_6849_10054" x="1" y="1" width="74" height="74" filterUnits="userSpaceOnUse" color-interpolation-filters="sRGB">
<feFlood flood-opacity="0" result="BackgroundImageFix"/>
<feColorMatrix in="SourceAlpha" type="matrix" values="0 0 0 0 0 0 0 0 0 0 0 0 0 0 0 0 0 0 127 0" result="hardAlpha"/>
<feOffset dx="4" dy="4"/>
<feGaussianBlur stdDeviation="2"/>
<feComposite in2="hardAlpha" operator="out"/>
<feColorMatrix type="matrix" values="0 0 0 0 0.4 0 0 0 0 0.4 0 0 0 0 0.4 0 0 0 0.15 0"/>
<feBlend mode="normal" in2="BackgroundImageFix" result="effect1_dropShadow_6849_10054"/>
<feBlend mode="normal" in="SourceGraphic" in2="effect1_dropShadow_6849_10054" result="shape"/>
</filter>
<filter id="filter1_f_6849_10054" x="0" y="0" width="68" height="68" filterUnits="userSpaceOnUse" color-interpolation-filters="sRGB">
<feFlood flood-opacity="0" result="BackgroundImageFix"/>
<feBlend mode="normal" in="SourceGraphic" in2="BackgroundImageFix" result="shape"/>
<feGaussianBlur stdDeviation="0.5" result="effect1_foregroundBlur_6849_10054"/>
</filter>
<clipPath id="clip0_6849_10054">
<rect width="35" height="35" fill="white" transform="translate(16 16)"/>
</clipPath>
</defs>
</svg>
