<svg width="18" height="18" viewBox="0 0 18 18" fill="none" xmlns="http://www.w3.org/2000/svg">
<path d="M11.25 12L8.25 15H14.25C15.075 15 15.75 14.325 15.75 13.5C15.75 12.675 15.075 12 14.25 12H11.25ZM9.045 5.3925L2.4675 11.97C2.3325 12.105 2.25 12.3 2.25 12.495V14.25C2.25 14.6625 2.5875 15 3 15H4.755C4.9575 15 5.145 14.9175 5.2875 14.7825L11.865 8.205L9.045 5.3925ZM14.0325 6.03C14.102 5.96062 14.1572 5.8782 14.1948 5.78747C14.2325 5.69674 14.2518 5.59948 14.2518 5.50125C14.2518 5.40303 14.2325 5.30576 14.1948 5.21503C14.1572 5.1243 14.102 5.04189 14.0325 4.9725L12.2775 3.2175C12.2081 3.14797 12.1257 3.09281 12.035 3.05518C11.9442 3.01754 11.847 2.99817 11.7487 2.99817C11.6505 2.99817 11.5533 3.01754 11.4625 3.05518C11.3718 3.09281 11.2894 3.14797 11.22 3.2175L9.8475 4.59L12.66 7.4025L14.0325 6.03Z" fill="#021D78"/>
</svg>
