<svg width="243" height="74" viewBox="0 0 243 74" fill="none" xmlns="http://www.w3.org/2000/svg">
<path d="M85.6562 19.6719V20.0312C85.1042 20.0625 84.6615 20.1302 84.3281 20.2344C83.9948 20.3385 83.6875 20.5104 83.4062 20.75C83.0104 21.0833 82.7344 21.5156 82.5781 22.0469C82.4323 22.5781 82.3594 23.3958 82.3594 24.5V38.4531C82.3594 39.8698 82.2552 40.9531 82.0469 41.7031C81.8385 42.4635 81.4583 43.1146 80.9062 43.6562C80.3542 44.1875 79.6094 44.6146 78.6719 44.9375C77.7344 45.2708 76.776 45.4375 75.7969 45.4375C75.2135 45.4375 74.6458 45.375 74.0938 45.25C73.5417 45.125 73.099 44.9583 72.7656 44.75C72.151 44.375 71.8438 43.875 71.8438 43.25C71.8438 42.875 71.9635 42.5677 72.2031 42.3281C72.4427 42.0885 72.7552 41.9688 73.1406 41.9688C73.5156 41.9688 73.8333 42.0938 74.0938 42.3438C74.2188 42.4688 74.3281 42.6198 74.4219 42.7969C74.5156 42.9844 74.6562 43.3229 74.8438 43.8125C75.0208 44.2604 75.2292 44.5781 75.4688 44.7656C75.7083 44.9635 76.0208 45.0625 76.4062 45.0625C76.9062 45.0625 77.3385 44.901 77.7031 44.5781C78.0781 44.2552 78.3646 43.7865 78.5625 43.1719C78.8229 42.3281 78.9531 40.7083 78.9531 38.3125V24.4844C78.9531 23.8281 78.9062 23.2344 78.8125 22.7031C78.6979 22.026 78.4479 21.4948 78.0625 21.1094C77.4583 20.474 76.6354 20.1146 75.5938 20.0312V19.6719H85.6562ZM97.8906 41.2656C97.7552 40.6406 97.6875 40 97.6875 39.3438C96.3854 40.6354 94.8438 41.2812 93.0625 41.2812C91.7604 41.2812 90.7135 40.9635 89.9219 40.3281C89.151 39.7031 88.7656 38.8177 88.7656 37.6719V32.2344L88.75 31.0469C88.75 30.3385 88.7083 29.8229 88.625 29.5C88.5417 29.1771 88.3854 28.901 88.1562 28.6719C87.8542 28.3906 87.3125 28.1823 86.5312 28.0469V27.7188H91.1094V35.6406C91.1094 36.7552 91.1458 37.5833 91.2188 38.125C91.3021 38.6562 91.4479 39.0938 91.6562 39.4375C91.8854 39.7917 92.2135 40.0729 92.6406 40.2812C93.0677 40.4792 93.5469 40.5781 94.0781 40.5781C94.6615 40.5781 95.2083 40.4635 95.7188 40.2344C96.2292 40.0052 96.6302 39.6927 96.9219 39.2969C97.224 38.8906 97.4219 38.4219 97.5156 37.8906C97.6198 37.3594 97.6719 36.4844 97.6719 35.2656V32.2031L97.6562 31.0469C97.6562 30.3385 97.6146 29.8229 97.5312 29.5C97.4583 29.1771 97.3021 28.901 97.0625 28.6719C96.7708 28.3906 96.2292 28.1823 95.4375 28.0469V27.7188H100.016V36.2031C100.016 37.276 100.042 38.0312 100.094 38.4688C100.156 38.8958 100.271 39.2448 100.438 39.5156C100.625 39.8073 100.844 40.0208 101.094 40.1562C101.344 40.2812 101.703 40.3594 102.172 40.3906V40.7031L97.8906 41.2656ZM107.469 29.8906C107.844 29.2344 108.266 28.7396 108.734 28.4062C109.599 27.7917 110.583 27.4844 111.688 27.4844C112.365 27.4844 112.88 27.6354 113.234 27.9375C113.557 28.2083 113.719 28.5417 113.719 28.9375C113.719 29.2292 113.62 29.4688 113.422 29.6562C113.234 29.8438 112.99 29.9375 112.688 29.9375C112.333 29.9375 112.026 29.7917 111.766 29.5L111.281 28.9688C110.896 28.5625 110.443 28.3594 109.922 28.3594C109.214 28.3594 108.661 28.8177 108.266 29.7344C107.87 30.651 107.672 31.9271 107.672 33.5625V36.4844L107.688 37.6719C107.688 38.3802 107.729 38.901 107.812 39.2344C107.896 39.5573 108.057 39.8281 108.297 40.0469C108.589 40.3281 109.125 40.5417 109.906 40.6875V41H103.016V40.6875C103.641 40.6042 104.089 40.4896 104.359 40.3438C104.63 40.1875 104.849 39.9271 105.016 39.5625C105.13 39.3229 105.208 38.9635 105.25 38.4844C105.302 37.9948 105.328 37.2917 105.328 36.375V32.5156C105.328 31.4427 105.302 30.6927 105.25 30.2656C105.198 29.8281 105.083 29.474 104.906 29.2031C104.729 28.9115 104.516 28.7031 104.266 28.5781C104.016 28.4427 103.656 28.3594 103.188 28.3281V28.0156L107.203 27.4531C107.38 28.401 107.469 29.2135 107.469 29.8906ZM114.312 28.0156L118.797 27.4531V36.4844L118.812 37.6719C118.812 38.3802 118.854 38.901 118.938 39.2344C119.021 39.5573 119.182 39.8281 119.422 40.0469C119.714 40.3281 120.25 40.5417 121.031 40.6875V41H114.141V40.6875C114.766 40.6042 115.214 40.4896 115.484 40.3438C115.755 40.1875 115.974 39.9271 116.141 39.5625C116.255 39.3229 116.333 38.9635 116.375 38.4844C116.427 37.9948 116.453 37.2917 116.453 36.375V32.5156C116.453 31.4427 116.427 30.6927 116.375 30.2656C116.323 29.8281 116.208 29.474 116.031 29.2031C115.854 28.9115 115.641 28.7031 115.391 28.5781C115.141 28.4427 114.781 28.3594 114.312 28.3281V28.0156ZM117.562 21.875C117.156 21.875 116.818 21.7448 116.547 21.4844C116.286 21.224 116.156 20.8958 116.156 20.5C116.156 20.1146 116.292 19.7917 116.562 19.5312C116.833 19.2604 117.167 19.125 117.562 19.125C117.958 19.125 118.292 19.2604 118.562 19.5312C118.833 19.7917 118.969 20.1146 118.969 20.5C118.969 20.8958 118.833 21.224 118.562 21.4844C118.302 21.7448 117.969 21.875 117.562 21.875ZM122.969 41V36.5781H123.219C123.51 37.6615 123.875 38.526 124.312 39.1719C125.115 40.349 126.052 40.9375 127.125 40.9375C127.781 40.9375 128.349 40.7396 128.828 40.3438C129.349 39.9062 129.609 39.2865 129.609 38.4844C129.609 37.8281 129.422 37.2552 129.047 36.7656C128.839 36.5052 128.573 36.2656 128.25 36.0469C127.938 35.8281 127.406 35.5208 126.656 35.125C125.344 34.4271 124.469 33.8438 124.031 33.375C123.406 32.7083 123.094 31.9375 123.094 31.0625C123.094 30.125 123.406 29.3177 124.031 28.6406C124.75 27.8698 125.703 27.4844 126.891 27.4844C127.422 27.4844 127.917 27.5781 128.375 27.7656L128.906 28C129.073 28.0625 129.219 28.0938 129.344 28.0938C129.542 28.0938 129.729 27.9375 129.906 27.625H130.219L130.391 31.1719H130.062C129.948 30.6719 129.823 30.2708 129.688 29.9688C129.562 29.6667 129.38 29.375 129.141 29.0938C128.818 28.6979 128.443 28.3906 128.016 28.1719C127.589 27.9427 127.167 27.8281 126.75 27.8281C126.167 27.8281 125.667 28.0417 125.25 28.4688C124.844 28.8854 124.641 29.401 124.641 30.0156C124.641 30.526 124.823 30.9896 125.188 31.4062C125.562 31.8125 126.135 32.1875 126.906 32.5312L128.562 33.2812C129.552 33.7292 130.292 34.2865 130.781 34.9531C131.271 35.6198 131.516 36.4062 131.516 37.3125C131.516 38.4062 131.161 39.3125 130.453 40.0312C129.641 40.8646 128.599 41.2812 127.328 41.2812C126.641 41.2812 125.943 41.1458 125.234 40.875C124.776 40.6979 124.5 40.599 124.406 40.5781C124.312 40.5469 124.193 40.5312 124.047 40.5312C123.682 40.5312 123.406 40.6875 123.219 41H122.969ZM140.25 30.4844V36.0938C140.25 37.1562 140.307 37.9479 140.422 38.4688C140.547 38.9792 140.771 39.401 141.094 39.7344C141.375 40.026 141.698 40.2448 142.062 40.3906C142.438 40.526 142.927 40.6094 143.531 40.6406V41H133.547V40.6406C134.151 40.6094 134.635 40.526 135 40.3906C135.375 40.2448 135.703 40.026 135.984 39.7344C136.318 39.401 136.542 38.9792 136.656 38.4688C136.771 37.9583 136.828 37.1667 136.828 36.0938V24.5781C136.828 23.6823 136.786 22.9948 136.703 22.5156C136.63 22.026 136.5 21.6302 136.312 21.3281C136.042 20.9115 135.698 20.6042 135.281 20.4062C134.865 20.1979 134.323 20.0729 133.656 20.0312H133.547V19.6719H142.969C144.615 19.6719 145.828 19.7552 146.609 19.9219C147.391 20.0885 148.104 20.4219 148.75 20.9219C150.229 22.0469 150.969 23.5469 150.969 25.4219C150.969 27.3281 150.219 28.724 148.719 29.6094C147.938 30.0677 146.99 30.3438 145.875 30.4375C145.521 30.4688 144.667 30.4844 143.312 30.4844H140.25ZM140.25 29.9844H141.781C142.812 29.9844 143.604 29.9115 144.156 29.7656C144.719 29.6094 145.219 29.3281 145.656 28.9219C146.677 27.9948 147.188 26.7604 147.188 25.2188C147.188 24.3646 147.036 23.5833 146.734 22.875C146.443 22.1562 146.021 21.5729 145.469 21.125C144.833 20.5938 144.078 20.2812 143.203 20.1875C142.964 20.1667 142.417 20.1562 141.562 20.1562H140.25V29.9844ZM151.875 19.6094L156.359 19.0469V36.4844L156.375 37.6719C156.375 38.3802 156.417 38.901 156.5 39.2344C156.583 39.5573 156.745 39.8281 156.984 40.0469C157.276 40.3281 157.812 40.5417 158.594 40.6875V41H151.703V40.6875C152.328 40.6042 152.776 40.4896 153.047 40.3438C153.318 40.1875 153.536 39.9271 153.703 39.5625C153.818 39.3229 153.896 38.9635 153.938 38.4844C153.99 37.9948 154.016 37.2917 154.016 36.375V24.1094C154.016 23.0469 153.99 22.2969 153.938 21.8594C153.885 21.4219 153.771 21.0677 153.594 20.7969C153.417 20.5052 153.203 20.2969 152.953 20.1719C152.703 20.0469 152.344 19.9688 151.875 19.9375V19.6094ZM172.812 39.4844L173.078 39.6406C172.703 40.7344 171.844 41.2812 170.5 41.2812C169.76 41.2812 169.146 41.099 168.656 40.7344C168.333 40.4948 168 40.0781 167.656 39.4844C166.958 40.1094 166.432 40.5208 166.078 40.7188C165.401 41.0938 164.615 41.2812 163.719 41.2812C162.573 41.2812 161.661 41.0052 160.984 40.4531C160.318 39.901 159.984 39.1562 159.984 38.2188C159.984 37.3542 160.26 36.6302 160.812 36.0469C161.125 35.724 161.484 35.4688 161.891 35.2812C162.297 35.0833 162.885 34.8854 163.656 34.6875C164.562 34.4583 165.229 34.2656 165.656 34.1094C166.094 33.9531 166.458 33.7656 166.75 33.5469C167.083 33.3073 167.312 33.026 167.438 32.7031C167.562 32.3802 167.625 31.9323 167.625 31.3594C167.625 30.1406 167.396 29.25 166.938 28.6875C166.729 28.4271 166.458 28.2188 166.125 28.0625C165.802 27.9062 165.464 27.8281 165.109 27.8281C164.682 27.8281 164.302 27.9375 163.969 28.1562C163.635 28.375 163.385 28.6771 163.219 29.0625L162.828 29.9688C162.62 30.4583 162.245 30.7031 161.703 30.7031C161.349 30.7031 161.052 30.5885 160.812 30.3594C160.573 30.1198 160.453 29.8229 160.453 29.4688C160.453 28.9375 160.828 28.4896 161.578 28.125C161.984 27.9375 162.484 27.7865 163.078 27.6719C163.682 27.5469 164.271 27.4844 164.844 27.4844C165.49 27.4844 166.161 27.5677 166.859 27.7344C167.557 27.901 168.141 28.1146 168.609 28.375C169.286 28.7604 169.708 29.2604 169.875 29.875C169.958 30.1875 170 30.7135 170 31.4531V37.2344C170 38.2135 170.042 38.8802 170.125 39.2344C170.302 39.974 170.729 40.3438 171.406 40.3438C171.729 40.3438 171.979 40.2865 172.156 40.1719C172.344 40.0573 172.562 39.8281 172.812 39.4844ZM167.656 33.3281C167.094 33.7969 166.474 34.2083 165.797 34.5625C165.036 34.9688 164.51 35.276 164.219 35.4844C163.927 35.6927 163.661 35.9427 163.422 36.2344C162.932 36.8385 162.688 37.5417 162.688 38.3438C162.688 39.0312 162.875 39.599 163.25 40.0469C163.635 40.4948 164.12 40.7188 164.703 40.7188C165.214 40.7188 165.693 40.5625 166.141 40.25C166.599 39.9271 166.943 39.5 167.172 38.9688C167.495 38.2708 167.656 37.2604 167.656 35.9375V33.3281ZM177.547 27.4531C177.693 28.0573 177.766 28.6198 177.766 29.1406V29.3906C179.057 28.1198 180.594 27.4844 182.375 27.4844C183.708 27.4844 184.781 27.7969 185.594 28.4219C186.396 29.0365 186.797 29.9115 186.797 31.0469V37.6719C186.797 38.3802 186.839 38.901 186.922 39.2344C187.005 39.5573 187.167 39.8281 187.406 40.0469C187.698 40.3281 188.234 40.5417 189.016 40.6875V41H182.125V40.6875C182.75 40.6042 183.198 40.4896 183.469 40.3438C183.74 40.1875 183.958 39.9271 184.125 39.5625C184.24 39.3229 184.318 38.9635 184.359 38.4844C184.411 37.9948 184.438 37.2969 184.438 36.3906V33.0781C184.438 31.9427 184.396 31.1094 184.312 30.5781C184.24 30.0469 184.094 29.6198 183.875 29.2969C183.635 28.9323 183.292 28.651 182.844 28.4531C182.396 28.2448 181.901 28.1406 181.359 28.1406C180.776 28.1406 180.229 28.2552 179.719 28.4844C179.219 28.7135 178.823 29.026 178.531 29.4219C178.219 29.8385 178.01 30.3125 177.906 30.8438C177.812 31.3646 177.766 32.2344 177.766 33.4531V36.5156L177.781 37.6719C177.781 38.3802 177.823 38.901 177.906 39.2344C177.99 39.5573 178.151 39.8281 178.391 40.0469C178.682 40.3281 179.219 40.5417 180 40.6875V41H173.109V40.6875C173.734 40.6042 174.182 40.4896 174.453 40.3438C174.724 40.1875 174.943 39.9271 175.109 39.5625C175.224 39.3229 175.302 38.9635 175.344 38.4844C175.396 37.9948 175.422 37.2917 175.422 36.375V32.5156C175.422 31.4427 175.396 30.6927 175.344 30.2656C175.292 29.8281 175.177 29.474 175 29.2031C174.823 28.9115 174.609 28.7031 174.359 28.5781C174.109 28.4427 173.75 28.3594 173.281 28.3281V28.0156L177.547 27.4531ZM194.203 27.4531C194.349 28.0573 194.422 28.6198 194.422 29.1406V29.3906C195.714 28.1198 197.25 27.4844 199.031 27.4844C200.365 27.4844 201.438 27.7969 202.25 28.4219C203.052 29.0365 203.453 29.9115 203.453 31.0469V37.6719C203.453 38.3802 203.495 38.901 203.578 39.2344C203.661 39.5573 203.823 39.8281 204.062 40.0469C204.354 40.3281 204.891 40.5417 205.672 40.6875V41H198.781V40.6875C199.406 40.6042 199.854 40.4896 200.125 40.3438C200.396 40.1875 200.615 39.9271 200.781 39.5625C200.896 39.3229 200.974 38.9635 201.016 38.4844C201.068 37.9948 201.094 37.2969 201.094 36.3906V33.0781C201.094 31.9427 201.052 31.1094 200.969 30.5781C200.896 30.0469 200.75 29.6198 200.531 29.2969C200.292 28.9323 199.948 28.651 199.5 28.4531C199.052 28.2448 198.557 28.1406 198.016 28.1406C197.432 28.1406 196.885 28.2552 196.375 28.4844C195.875 28.7135 195.479 29.026 195.188 29.4219C194.875 29.8385 194.667 30.3125 194.562 30.8438C194.469 31.3646 194.422 32.2344 194.422 33.4531V36.5156L194.438 37.6719C194.438 38.3802 194.479 38.901 194.562 39.2344C194.646 39.5573 194.807 39.8281 195.047 40.0469C195.339 40.3281 195.875 40.5417 196.656 40.6875V41H189.766V40.6875C190.391 40.6042 190.839 40.4896 191.109 40.3438C191.38 40.1875 191.599 39.9271 191.766 39.5625C191.88 39.3229 191.958 38.9635 192 38.4844C192.052 37.9948 192.078 37.2917 192.078 36.375V32.5156C192.078 31.4427 192.052 30.6927 192 30.2656C191.948 29.8281 191.833 29.474 191.656 29.2031C191.479 28.9115 191.266 28.7031 191.016 28.5781C190.766 28.4427 190.406 28.3594 189.938 28.3281V28.0156L194.203 27.4531ZM209.719 32.5C209.677 33.0104 209.656 33.3802 209.656 33.6094C209.656 34.5156 209.786 35.401 210.047 36.2656C210.318 37.1302 210.682 37.849 211.141 38.4219C211.609 39.0052 212.188 39.4635 212.875 39.7969C213.573 40.1302 214.302 40.2969 215.062 40.2969C215.625 40.2969 216.156 40.2031 216.656 40.0156C217.167 39.8281 217.589 39.5677 217.922 39.2344C218.297 38.8698 218.62 38.2865 218.891 37.4844L219.203 37.5938C218.932 38.8125 218.349 39.7344 217.453 40.3594C216.568 40.974 215.385 41.2812 213.906 41.2812C212.625 41.2812 211.526 41.0781 210.609 40.6719C209.693 40.2656 208.917 39.6406 208.281 38.7969C207.396 37.6198 206.953 36.1719 206.953 34.4531C206.953 32.1094 207.792 30.2708 209.469 28.9375C210.688 27.9688 212.078 27.4844 213.641 27.4844C214.474 27.4844 215.245 27.6354 215.953 27.9375C216.661 28.2292 217.26 28.6562 217.75 29.2188C218.51 30.0938 218.891 31.1875 218.891 32.5H209.719ZM216.562 31.8906C216.49 30.849 216.297 30.0469 215.984 29.4844C215.703 28.974 215.328 28.5729 214.859 28.2812C214.391 27.9792 213.891 27.8281 213.359 27.8281C212.464 27.8281 211.677 28.2135 211 28.9844C210.333 29.7552 209.938 30.724 209.812 31.8906H216.562ZM225.312 29.8906C225.688 29.2344 226.109 28.7396 226.578 28.4062C227.443 27.7917 228.427 27.4844 229.531 27.4844C230.208 27.4844 230.724 27.6354 231.078 27.9375C231.401 28.2083 231.562 28.5417 231.562 28.9375C231.562 29.2292 231.464 29.4688 231.266 29.6562C231.078 29.8438 230.833 29.9375 230.531 29.9375C230.177 29.9375 229.87 29.7917 229.609 29.5L229.125 28.9688C228.74 28.5625 228.286 28.3594 227.766 28.3594C227.057 28.3594 226.505 28.8177 226.109 29.7344C225.714 30.651 225.516 31.9271 225.516 33.5625V36.4844L225.531 37.6719C225.531 38.3802 225.573 38.901 225.656 39.2344C225.74 39.5573 225.901 39.8281 226.141 40.0469C226.432 40.3281 226.969 40.5417 227.75 40.6875V41H220.859V40.6875C221.484 40.6042 221.932 40.4896 222.203 40.3438C222.474 40.1875 222.693 39.9271 222.859 39.5625C222.974 39.3229 223.052 38.9635 223.094 38.4844C223.146 37.9948 223.172 37.2917 223.172 36.375V32.5156C223.172 31.4427 223.146 30.6927 223.094 30.2656C223.042 29.8281 222.927 29.474 222.75 29.2031C222.573 28.9115 222.359 28.7031 222.109 28.5781C221.859 28.4427 221.5 28.3594 221.031 28.3281V28.0156L225.047 27.4531C225.224 28.401 225.312 29.2135 225.312 29.8906Z" fill="white"/>
<path d="M111.784 64C111.859 63.552 111.896 63.0978 111.896 62.6373V58.4933C111.896 58.0578 111.859 57.6098 111.784 57.1493H113.427C113.937 57.1493 114.366 57.2924 114.715 57.5787C115.063 57.8524 115.237 58.2258 115.237 58.6987C115.237 59.1591 115.057 59.5449 114.696 59.856C114.547 60.0053 114.416 60.0987 114.304 60.136C114.615 60.1733 114.889 60.2853 115.125 60.472C115.586 60.8453 115.816 61.3307 115.816 61.928C115.816 62.5253 115.592 63.0231 115.144 63.4213C114.708 63.8071 114.111 64 113.352 64H111.784ZM112.811 62.6373C112.811 62.7244 112.829 62.992 112.867 63.44H113.352C113.825 63.44 114.204 63.3093 114.491 63.048C114.777 62.7867 114.92 62.432 114.92 61.984C114.92 61.536 114.777 61.1813 114.491 60.92C114.217 60.6213 113.837 60.472 113.352 60.472H112.811V62.6373ZM112.867 57.7093C112.829 58.12 112.811 58.3813 112.811 58.4933V59.912H113.445C113.707 59.912 113.931 59.8062 114.117 59.5947C114.304 59.3707 114.397 59.1093 114.397 58.8107C114.397 58.512 114.323 58.2569 114.173 58.0453C113.987 57.8213 113.744 57.7093 113.445 57.7093H112.867ZM117.061 59.1467C117.124 59.1342 117.211 59.1156 117.323 59.0907C117.435 59.0533 117.565 59.0284 117.715 59.016C117.864 58.9911 118.038 58.96 118.237 58.9227C118.138 59.3333 118.088 59.7876 118.088 60.2853V61.9653C118.088 62.4133 118.156 62.7431 118.293 62.9547C118.53 63.328 118.891 63.5147 119.376 63.5147C119.861 63.5147 120.222 63.328 120.459 62.9547C120.596 62.7431 120.664 62.4133 120.664 61.9653V60.5093C120.664 60.0613 120.62 59.6071 120.533 59.1467L121.709 58.9227C121.622 59.3333 121.579 59.7876 121.579 60.2853V63.384C121.579 64.1058 121.392 64.6907 121.019 65.1387C120.546 65.6862 119.961 65.96 119.264 65.96C118.58 65.96 118.013 65.792 117.565 65.456V64.28H117.603C117.727 64.5911 117.864 64.8089 118.013 64.9333C118.349 65.232 118.748 65.3813 119.208 65.3813C119.668 65.3813 120.017 65.2133 120.253 64.8773C120.527 64.5289 120.664 64.0498 120.664 63.44C120.316 63.8756 119.805 64.0933 119.133 64.0933C118.461 64.0933 117.951 63.8507 117.603 63.3653C117.316 62.9671 117.173 62.5004 117.173 61.9653V60.5093C117.173 60.0613 117.136 59.6071 117.061 59.1467ZM127.526 62.9173V63.3467C127.526 63.5333 127.539 63.7511 127.563 64H126.649C126.786 63.5893 126.873 63.1413 126.91 62.656L127.265 58.4933C127.277 58.4187 127.283 58.3378 127.283 58.2507V57.56C127.283 57.4231 127.271 57.2862 127.246 57.1493H128.198C128.298 57.5476 128.453 57.9769 128.665 58.4373L130.699 62.8987L132.827 58.4373C132.989 58.0267 133.139 57.5973 133.275 57.1493H134.246C134.221 57.2862 134.209 57.4231 134.209 57.56V58.232C134.209 58.3191 134.215 58.4062 134.227 58.4933L134.582 62.656C134.619 63.1413 134.707 63.5893 134.843 64H133.686C133.711 63.8631 133.723 63.7324 133.723 63.608V62.9547C133.723 62.8551 133.717 62.7493 133.705 62.6373L133.35 58.7173L131.539 62.6933C131.39 63.0293 131.241 63.4649 131.091 64H130.139C130.003 63.5271 129.853 63.0916 129.691 62.6933L127.899 58.7173L127.545 62.6373C127.532 62.7369 127.526 62.8302 127.526 62.9173ZM136.175 64C136.249 63.552 136.287 63.0978 136.287 62.6373V58.4933C136.287 58.0578 136.249 57.6098 136.175 57.1493H137.743C138.489 57.1493 139.08 57.3422 139.516 57.728C139.976 58.1138 140.207 58.5991 140.207 59.184C140.207 59.7564 139.983 60.2418 139.535 60.64C139.087 61.0382 138.489 61.2373 137.743 61.2373H137.201V62.6373C137.201 63.1227 137.251 63.5769 137.351 64H136.175ZM137.257 57.7093C137.22 58.12 137.201 58.3813 137.201 58.4933V60.6587H137.743C138.191 60.6587 138.545 60.528 138.807 60.2667C139.08 59.9929 139.217 59.6382 139.217 59.2027C139.217 58.7671 139.093 58.4124 138.844 58.1387C138.533 57.8524 138.166 57.7093 137.743 57.7093H137.257ZM141.06 62.2453C141.52 63.0916 142.08 63.5147 142.74 63.5147C143.238 63.5147 143.611 63.3716 143.86 63.0853C144.109 62.7867 144.233 62.4444 144.233 62.0587C144.233 61.536 143.972 61.1378 143.449 60.864L142.46 60.3227C141.726 59.912 141.359 59.3396 141.359 58.6053C141.359 58.0827 141.589 57.6596 142.049 57.336C142.311 57.1493 142.672 57.056 143.132 57.056C143.592 57.056 143.978 57.1991 144.289 57.4853V58.4373H144.252C144.177 58.3253 144.121 58.232 144.084 58.1573C143.86 57.7964 143.574 57.616 143.225 57.616C142.889 57.616 142.653 57.6907 142.516 57.84C142.292 58.0267 142.18 58.2942 142.18 58.6427C142.18 58.9787 142.41 59.2649 142.871 59.5013L143.785 59.9867C144.656 60.4347 145.092 61.088 145.092 61.9467C145.092 62.5813 144.874 63.0853 144.439 63.4587C143.978 63.8818 143.412 64.0933 142.74 64.0933C142.08 64.0933 141.508 63.8693 141.023 63.4213V62.2453H141.06ZM155.805 60.2853V62.5627C155.083 63.5831 154.144 64.0933 152.986 64.0933C152.053 64.0933 151.238 63.7511 150.541 63.0667C149.894 62.3947 149.57 61.5671 149.57 60.584C149.57 59.6009 149.9 58.7671 150.56 58.0827C151.219 57.3982 152.028 57.056 152.986 57.056C153.77 57.056 154.455 57.2924 155.04 57.7653V58.9413H155.002C154.928 58.792 154.84 58.6676 154.741 58.568C154.268 57.9333 153.677 57.616 152.968 57.616C152.271 57.616 151.692 57.9147 151.232 58.512C150.784 59.0969 150.56 59.7813 150.56 60.5653C150.56 61.3369 150.771 62.0089 151.194 62.5813C151.68 63.2036 152.296 63.5147 153.042 63.5147C153.789 63.5147 154.411 63.1289 154.909 62.3573V60.8453H154.648C154.15 60.8453 153.689 60.8889 153.266 60.976V60.2853H155.805ZM157.257 64C157.331 63.552 157.369 63.0978 157.369 62.6373V58.6427C157.369 58.2071 157.331 57.7529 157.257 57.28L158.433 57.056C158.333 57.4667 158.283 57.9209 158.283 58.4187V62.6373C158.283 63.1227 158.333 63.5769 158.433 64H157.257ZM163.132 60.0427C162.858 59.6693 162.504 59.4827 162.068 59.4827C161.645 59.4827 161.309 59.6693 161.06 60.0427C160.786 60.3662 160.649 60.8516 160.649 61.4987C160.649 62.1458 160.786 62.6373 161.06 62.9733C161.309 63.3342 161.645 63.5147 162.068 63.5147C162.504 63.5147 162.852 63.3404 163.113 62.992C163.387 62.6436 163.524 62.1458 163.524 61.4987C163.524 60.8516 163.393 60.3662 163.132 60.0427ZM163.879 63.272C163.431 63.8196 162.833 64.0933 162.087 64.0933C161.352 64.0933 160.761 63.8258 160.313 63.2907C159.878 62.7556 159.66 62.1644 159.66 61.5173C159.66 60.8578 159.872 60.2604 160.295 59.7253C160.743 59.1902 161.34 58.9227 162.087 58.9227C162.833 58.9227 163.424 59.1902 163.86 59.7253C164.308 60.248 164.532 60.8516 164.532 61.536C164.532 62.208 164.314 62.7867 163.879 63.272ZM169.297 60.0427C169.023 59.6693 168.675 59.4827 168.252 59.4827C167.841 59.4827 167.499 59.6693 167.225 60.0427C166.951 60.3662 166.815 60.8516 166.815 61.4987C166.815 62.1458 166.951 62.6373 167.225 62.9733C167.499 63.3342 167.841 63.5147 168.252 63.5147C168.675 63.5147 169.023 63.3342 169.297 62.9733C169.571 62.6373 169.708 62.1458 169.708 61.4987C169.708 60.8516 169.571 60.3662 169.297 60.0427ZM165.788 64C165.863 63.5147 165.9 63.0604 165.9 62.6373V58.6427C165.9 58.2071 165.863 57.7529 165.788 57.28L166.964 57.056C166.864 57.4667 166.815 57.9209 166.815 58.4187V59.5573C167.163 59.1342 167.679 58.9227 168.364 58.9227C169.048 58.9227 169.608 59.1902 170.044 59.7253C170.479 60.248 170.697 60.8516 170.697 61.536C170.697 62.208 170.479 62.7867 170.044 63.272C169.608 63.8196 169.017 64.0933 168.271 64.0933C167.673 64.0933 167.213 63.8942 166.889 63.496C166.902 63.5831 166.908 63.6702 166.908 63.7573C166.92 63.8444 166.939 63.9253 166.964 64H165.788ZM176.415 62.6373C176.415 63.0231 176.459 63.4773 176.546 64H175.37C175.395 63.9253 175.407 63.8444 175.407 63.7573C175.42 63.6702 175.432 63.5831 175.445 63.496C175.096 63.8942 174.636 64.0933 174.063 64.0933C173.329 64.0933 172.738 63.8258 172.29 63.2907C171.854 62.7556 171.637 62.1644 171.637 61.5173C171.637 60.8578 171.848 60.2604 172.271 59.7253C172.719 59.1902 173.285 58.9227 173.97 58.9227C174.654 58.9227 175.14 59.1093 175.426 59.4827C175.426 59.3707 175.407 59.2587 175.37 59.1467L176.546 58.9227C176.459 59.4453 176.415 59.8996 176.415 60.2853V62.6373ZM175.109 60.0427C174.835 59.6693 174.48 59.4827 174.045 59.4827C173.621 59.4827 173.285 59.6693 173.037 60.0427C172.763 60.3662 172.626 60.8516 172.626 61.4987C172.626 62.1458 172.763 62.6373 173.037 62.9733C173.285 63.3342 173.621 63.5147 174.045 63.5147C174.48 63.5147 174.829 63.3404 175.09 62.992C175.364 62.6436 175.501 62.1458 175.501 61.4987C175.501 60.8516 175.37 60.3662 175.109 60.0427ZM178.12 64C178.195 63.552 178.232 63.0978 178.232 62.6373V58.6427C178.232 58.2071 178.195 57.7529 178.12 57.28L179.296 57.056C179.196 57.4667 179.147 57.9209 179.147 58.4187V62.6373C179.147 63.1227 179.196 63.5769 179.296 64H178.12Z" fill="white"/>
<line x1="62.25" y1="9" x2="62.25" y2="67" stroke="white" stroke-width="0.5"/>
<path d="M17.3077 55.5C28.8085 59.5 30 52.2762 30 47.7762V33V18H21.8073V18.5C26.2073 18.9 26.976 22.6667 26.8093 24.5L26.8073 49.5C26.8093 52.5 25.8073 54.5 25.3073 55C22.9073 57.4 20.9335 54 19.8085 52.5C18.6085 50.9 17.1469 51.7468 16.8093 52C15.2093 53.2 16.3084 55 17.3077 55.5Z" fill="white"/>
<path d="M39 49.5V50H35.5973H32V34V18H41.5C49.1 18 50.6667 23.3333 50.5 26C50.5 32.4 45.5 34 43 34H36.5V33H40C44.8 33 46 28.3333 46 26C46 20.4 41.6667 19 39.5 19H35.5V34V40C35.5 51 37.2684 49.3333 39 49.5Z" fill="white"/>
</svg>
