<svg width="161" height="27" viewBox="0 0 161 27" fill="none" xmlns="http://www.w3.org/2000/svg">
<path d="M14.6562 0.671875V1.03125C14.1042 1.0625 13.6615 1.13021 13.3281 1.23438C12.9948 1.33854 12.6875 1.51042 12.4062 1.75C12.0104 2.08333 11.7344 2.51562 11.5781 3.04688C11.4323 3.57812 11.3594 4.39583 11.3594 5.5V19.4531C11.3594 20.8698 11.2552 21.9531 11.0469 22.7031C10.8385 23.4635 10.4583 24.1146 9.90625 24.6562C9.35417 25.1875 8.60938 25.6146 7.67188 25.9375C6.73438 26.2708 5.77604 26.4375 4.79688 26.4375C4.21354 26.4375 3.64583 26.375 3.09375 26.25C2.54167 26.125 2.09896 25.9583 1.76562 25.75C1.15104 25.375 0.84375 24.875 0.84375 24.25C0.84375 23.875 0.963542 23.5677 1.20312 23.3281C1.44271 23.0885 1.75521 22.9688 2.14062 22.9688C2.51562 22.9688 2.83333 23.0938 3.09375 23.3438C3.21875 23.4688 3.32812 23.6198 3.42188 23.7969C3.51562 23.9844 3.65625 24.3229 3.84375 24.8125C4.02083 25.2604 4.22917 25.5781 4.46875 25.7656C4.70833 25.9635 5.02083 26.0625 5.40625 26.0625C5.90625 26.0625 6.33854 25.901 6.70312 25.5781C7.07812 25.2552 7.36458 24.7865 7.5625 24.1719C7.82292 23.3281 7.95312 21.7083 7.95312 19.3125V5.48438C7.95312 4.82812 7.90625 4.23438 7.8125 3.70312C7.69792 3.02604 7.44792 2.49479 7.0625 2.10938C6.45833 1.47396 5.63542 1.11458 4.59375 1.03125V0.671875H14.6562ZM26.8906 22.2656C26.7552 21.6406 26.6875 21 26.6875 20.3438C25.3854 21.6354 23.8438 22.2812 22.0625 22.2812C20.7604 22.2812 19.7135 21.9635 18.9219 21.3281C18.151 20.7031 17.7656 19.8177 17.7656 18.6719V13.2344L17.75 12.0469C17.75 11.3385 17.7083 10.8229 17.625 10.5C17.5417 10.1771 17.3854 9.90104 17.1562 9.67188C16.8542 9.39062 16.3125 9.18229 15.5312 9.04688V8.71875H20.1094V16.6406C20.1094 17.7552 20.1458 18.5833 20.2188 19.125C20.3021 19.6562 20.4479 20.0938 20.6562 20.4375C20.8854 20.7917 21.2135 21.0729 21.6406 21.2812C22.0677 21.4792 22.5469 21.5781 23.0781 21.5781C23.6615 21.5781 24.2083 21.4635 24.7188 21.2344C25.2292 21.0052 25.6302 20.6927 25.9219 20.2969C26.224 19.8906 26.4219 19.4219 26.5156 18.8906C26.6198 18.3594 26.6719 17.4844 26.6719 16.2656V13.2031L26.6562 12.0469C26.6562 11.3385 26.6146 10.8229 26.5312 10.5C26.4583 10.1771 26.3021 9.90104 26.0625 9.67188C25.7708 9.39062 25.2292 9.18229 24.4375 9.04688V8.71875H29.0156V17.2031C29.0156 18.276 29.0417 19.0312 29.0938 19.4688C29.1562 19.8958 29.2708 20.2448 29.4375 20.5156C29.625 20.8073 29.8438 21.0208 30.0938 21.1562C30.3438 21.2812 30.7031 21.3594 31.1719 21.3906V21.7031L26.8906 22.2656ZM36.4688 10.8906C36.8438 10.2344 37.2656 9.73958 37.7344 9.40625C38.599 8.79167 39.5833 8.48438 40.6875 8.48438C41.3646 8.48438 41.8802 8.63542 42.2344 8.9375C42.5573 9.20833 42.7188 9.54167 42.7188 9.9375C42.7188 10.2292 42.6198 10.4688 42.4219 10.6562C42.2344 10.8438 41.9896 10.9375 41.6875 10.9375C41.3333 10.9375 41.026 10.7917 40.7656 10.5L40.2812 9.96875C39.8958 9.5625 39.4427 9.35938 38.9219 9.35938C38.2135 9.35938 37.6615 9.81771 37.2656 10.7344C36.8698 11.651 36.6719 12.9271 36.6719 14.5625V17.4844L36.6875 18.6719C36.6875 19.3802 36.7292 19.901 36.8125 20.2344C36.8958 20.5573 37.0573 20.8281 37.2969 21.0469C37.5885 21.3281 38.125 21.5417 38.9062 21.6875V22H32.0156V21.6875C32.6406 21.6042 33.0885 21.4896 33.3594 21.3438C33.6302 21.1875 33.849 20.9271 34.0156 20.5625C34.1302 20.3229 34.2083 19.9635 34.25 19.4844C34.3021 18.9948 34.3281 18.2917 34.3281 17.375V13.5156C34.3281 12.4427 34.3021 11.6927 34.25 11.2656C34.1979 10.8281 34.0833 10.474 33.9062 10.2031C33.7292 9.91146 33.5156 9.70312 33.2656 9.57812C33.0156 9.44271 32.6562 9.35938 32.1875 9.32812V9.01562L36.2031 8.45312C36.3802 9.40104 36.4688 10.2135 36.4688 10.8906ZM43.3125 9.01562L47.7969 8.45312V17.4844L47.8125 18.6719C47.8125 19.3802 47.8542 19.901 47.9375 20.2344C48.0208 20.5573 48.1823 20.8281 48.4219 21.0469C48.7135 21.3281 49.25 21.5417 50.0312 21.6875V22H43.1406V21.6875C43.7656 21.6042 44.2135 21.4896 44.4844 21.3438C44.7552 21.1875 44.974 20.9271 45.1406 20.5625C45.2552 20.3229 45.3333 19.9635 45.375 19.4844C45.4271 18.9948 45.4531 18.2917 45.4531 17.375V13.5156C45.4531 12.4427 45.4271 11.6927 45.375 11.2656C45.3229 10.8281 45.2083 10.474 45.0312 10.2031C44.8542 9.91146 44.6406 9.70312 44.3906 9.57812C44.1406 9.44271 43.7812 9.35938 43.3125 9.32812V9.01562ZM46.5625 2.875C46.1562 2.875 45.8177 2.74479 45.5469 2.48438C45.2865 2.22396 45.1562 1.89583 45.1562 1.5C45.1562 1.11458 45.2917 0.791667 45.5625 0.53125C45.8333 0.260417 46.1667 0.125 46.5625 0.125C46.9583 0.125 47.2917 0.260417 47.5625 0.53125C47.8333 0.791667 47.9688 1.11458 47.9688 1.5C47.9688 1.89583 47.8333 2.22396 47.5625 2.48438C47.3021 2.74479 46.9688 2.875 46.5625 2.875ZM51.9688 22V17.5781H52.2188C52.5104 18.6615 52.875 19.526 53.3125 20.1719C54.1146 21.349 55.0521 21.9375 56.125 21.9375C56.7812 21.9375 57.349 21.7396 57.8281 21.3438C58.349 20.9062 58.6094 20.2865 58.6094 19.4844C58.6094 18.8281 58.4219 18.2552 58.0469 17.7656C57.8385 17.5052 57.5729 17.2656 57.25 17.0469C56.9375 16.8281 56.4062 16.5208 55.6562 16.125C54.3438 15.4271 53.4688 14.8438 53.0312 14.375C52.4062 13.7083 52.0938 12.9375 52.0938 12.0625C52.0938 11.125 52.4062 10.3177 53.0312 9.64062C53.75 8.86979 54.7031 8.48438 55.8906 8.48438C56.4219 8.48438 56.9167 8.57812 57.375 8.76562L57.9062 9C58.0729 9.0625 58.2188 9.09375 58.3438 9.09375C58.5417 9.09375 58.7292 8.9375 58.9062 8.625H59.2188L59.3906 12.1719H59.0625C58.9479 11.6719 58.8229 11.2708 58.6875 10.9688C58.5625 10.6667 58.3802 10.375 58.1406 10.0938C57.8177 9.69792 57.4427 9.39062 57.0156 9.17188C56.5885 8.94271 56.1667 8.82812 55.75 8.82812C55.1667 8.82812 54.6667 9.04167 54.25 9.46875C53.8438 9.88542 53.6406 10.401 53.6406 11.0156C53.6406 11.526 53.8229 11.9896 54.1875 12.4062C54.5625 12.8125 55.1354 13.1875 55.9062 13.5312L57.5625 14.2812C58.5521 14.7292 59.2917 15.2865 59.7812 15.9531C60.2708 16.6198 60.5156 17.4062 60.5156 18.3125C60.5156 19.4062 60.1615 20.3125 59.4531 21.0312C58.6406 21.8646 57.599 22.2812 56.3281 22.2812C55.6406 22.2812 54.9427 22.1458 54.2344 21.875C53.776 21.6979 53.5 21.599 53.4062 21.5781C53.3125 21.5469 53.1927 21.5312 53.0469 21.5312C52.6823 21.5312 52.4062 21.6875 52.2188 22H51.9688ZM69.25 11.4844V17.0938C69.25 18.1562 69.3073 18.9479 69.4219 19.4688C69.5469 19.9792 69.7708 20.401 70.0938 20.7344C70.375 21.026 70.6979 21.2448 71.0625 21.3906C71.4375 21.526 71.9271 21.6094 72.5312 21.6406V22H62.5469V21.6406C63.151 21.6094 63.6354 21.526 64 21.3906C64.375 21.2448 64.7031 21.026 64.9844 20.7344C65.3177 20.401 65.5417 19.9792 65.6562 19.4688C65.7708 18.9583 65.8281 18.1667 65.8281 17.0938V5.57812C65.8281 4.68229 65.7865 3.99479 65.7031 3.51562C65.6302 3.02604 65.5 2.63021 65.3125 2.32812C65.0417 1.91146 64.6979 1.60417 64.2812 1.40625C63.8646 1.19792 63.3229 1.07292 62.6562 1.03125H62.5469V0.671875H71.9688C73.6146 0.671875 74.8281 0.755208 75.6094 0.921875C76.3906 1.08854 77.1042 1.42188 77.75 1.92188C79.2292 3.04688 79.9688 4.54688 79.9688 6.42188C79.9688 8.32812 79.2188 9.72396 77.7188 10.6094C76.9375 11.0677 75.9896 11.3438 74.875 11.4375C74.5208 11.4688 73.6667 11.4844 72.3125 11.4844H69.25ZM69.25 10.9844H70.7812C71.8125 10.9844 72.6042 10.9115 73.1562 10.7656C73.7188 10.6094 74.2188 10.3281 74.6562 9.92188C75.6771 8.99479 76.1875 7.76042 76.1875 6.21875C76.1875 5.36458 76.0365 4.58333 75.7344 3.875C75.4427 3.15625 75.0208 2.57292 74.4688 2.125C73.8333 1.59375 73.0781 1.28125 72.2031 1.1875C71.9635 1.16667 71.4167 1.15625 70.5625 1.15625H69.25V10.9844ZM80.875 0.609375L85.3594 0.046875V17.4844L85.375 18.6719C85.375 19.3802 85.4167 19.901 85.5 20.2344C85.5833 20.5573 85.7448 20.8281 85.9844 21.0469C86.276 21.3281 86.8125 21.5417 87.5938 21.6875V22H80.7031V21.6875C81.3281 21.6042 81.776 21.4896 82.0469 21.3438C82.3177 21.1875 82.5365 20.9271 82.7031 20.5625C82.8177 20.3229 82.8958 19.9635 82.9375 19.4844C82.9896 18.9948 83.0156 18.2917 83.0156 17.375V5.10938C83.0156 4.04688 82.9896 3.29688 82.9375 2.85938C82.8854 2.42188 82.7708 2.06771 82.5938 1.79688C82.4167 1.50521 82.2031 1.29688 81.9531 1.17188C81.7031 1.04688 81.3438 0.96875 80.875 0.9375V0.609375ZM101.812 20.4844L102.078 20.6406C101.703 21.7344 100.844 22.2812 99.5 22.2812C98.7604 22.2812 98.1458 22.099 97.6562 21.7344C97.3333 21.4948 97 21.0781 96.6562 20.4844C95.9583 21.1094 95.4323 21.5208 95.0781 21.7188C94.401 22.0938 93.6146 22.2812 92.7188 22.2812C91.5729 22.2812 90.6615 22.0052 89.9844 21.4531C89.3177 20.901 88.9844 20.1562 88.9844 19.2188C88.9844 18.3542 89.2604 17.6302 89.8125 17.0469C90.125 16.724 90.4844 16.4688 90.8906 16.2812C91.2969 16.0833 91.8854 15.8854 92.6562 15.6875C93.5625 15.4583 94.2292 15.2656 94.6562 15.1094C95.0938 14.9531 95.4583 14.7656 95.75 14.5469C96.0833 14.3073 96.3125 14.026 96.4375 13.7031C96.5625 13.3802 96.625 12.9323 96.625 12.3594C96.625 11.1406 96.3958 10.25 95.9375 9.6875C95.7292 9.42708 95.4583 9.21875 95.125 9.0625C94.8021 8.90625 94.4635 8.82812 94.1094 8.82812C93.6823 8.82812 93.3021 8.9375 92.9688 9.15625C92.6354 9.375 92.3854 9.67708 92.2188 10.0625L91.8281 10.9688C91.6198 11.4583 91.2448 11.7031 90.7031 11.7031C90.349 11.7031 90.0521 11.5885 89.8125 11.3594C89.5729 11.1198 89.4531 10.8229 89.4531 10.4688C89.4531 9.9375 89.8281 9.48958 90.5781 9.125C90.9844 8.9375 91.4844 8.78646 92.0781 8.67188C92.6823 8.54688 93.2708 8.48438 93.8438 8.48438C94.4896 8.48438 95.1615 8.56771 95.8594 8.73438C96.5573 8.90104 97.1406 9.11458 97.6094 9.375C98.2865 9.76042 98.7083 10.2604 98.875 10.875C98.9583 11.1875 99 11.7135 99 12.4531V18.2344C99 19.2135 99.0417 19.8802 99.125 20.2344C99.3021 20.974 99.7292 21.3438 100.406 21.3438C100.729 21.3438 100.979 21.2865 101.156 21.1719C101.344 21.0573 101.562 20.8281 101.812 20.4844ZM96.6562 14.3281C96.0938 14.7969 95.474 15.2083 94.7969 15.5625C94.0365 15.9688 93.5104 16.276 93.2188 16.4844C92.9271 16.6927 92.6615 16.9427 92.4219 17.2344C91.9323 17.8385 91.6875 18.5417 91.6875 19.3438C91.6875 20.0312 91.875 20.599 92.25 21.0469C92.6354 21.4948 93.1198 21.7188 93.7031 21.7188C94.2135 21.7188 94.6927 21.5625 95.1406 21.25C95.599 20.9271 95.9427 20.5 96.1719 19.9688C96.4948 19.2708 96.6562 18.2604 96.6562 16.9375V14.3281ZM106.547 8.45312C106.693 9.05729 106.766 9.61979 106.766 10.1406V10.3906C108.057 9.11979 109.594 8.48438 111.375 8.48438C112.708 8.48438 113.781 8.79688 114.594 9.42188C115.396 10.0365 115.797 10.9115 115.797 12.0469V18.6719C115.797 19.3802 115.839 19.901 115.922 20.2344C116.005 20.5573 116.167 20.8281 116.406 21.0469C116.698 21.3281 117.234 21.5417 118.016 21.6875V22H111.125V21.6875C111.75 21.6042 112.198 21.4896 112.469 21.3438C112.74 21.1875 112.958 20.9271 113.125 20.5625C113.24 20.3229 113.318 19.9635 113.359 19.4844C113.411 18.9948 113.438 18.2969 113.438 17.3906V14.0781C113.438 12.9427 113.396 12.1094 113.312 11.5781C113.24 11.0469 113.094 10.6198 112.875 10.2969C112.635 9.93229 112.292 9.65104 111.844 9.45312C111.396 9.24479 110.901 9.14062 110.359 9.14062C109.776 9.14062 109.229 9.25521 108.719 9.48438C108.219 9.71354 107.823 10.026 107.531 10.4219C107.219 10.8385 107.01 11.3125 106.906 11.8438C106.812 12.3646 106.766 13.2344 106.766 14.4531V17.5156L106.781 18.6719C106.781 19.3802 106.823 19.901 106.906 20.2344C106.99 20.5573 107.151 20.8281 107.391 21.0469C107.682 21.3281 108.219 21.5417 109 21.6875V22H102.109V21.6875C102.734 21.6042 103.182 21.4896 103.453 21.3438C103.724 21.1875 103.943 20.9271 104.109 20.5625C104.224 20.3229 104.302 19.9635 104.344 19.4844C104.396 18.9948 104.422 18.2917 104.422 17.375V13.5156C104.422 12.4427 104.396 11.6927 104.344 11.2656C104.292 10.8281 104.177 10.474 104 10.2031C103.823 9.91146 103.609 9.70312 103.359 9.57812C103.109 9.44271 102.75 9.35938 102.281 9.32812V9.01562L106.547 8.45312ZM123.203 8.45312C123.349 9.05729 123.422 9.61979 123.422 10.1406V10.3906C124.714 9.11979 126.25 8.48438 128.031 8.48438C129.365 8.48438 130.438 8.79688 131.25 9.42188C132.052 10.0365 132.453 10.9115 132.453 12.0469V18.6719C132.453 19.3802 132.495 19.901 132.578 20.2344C132.661 20.5573 132.823 20.8281 133.062 21.0469C133.354 21.3281 133.891 21.5417 134.672 21.6875V22H127.781V21.6875C128.406 21.6042 128.854 21.4896 129.125 21.3438C129.396 21.1875 129.615 20.9271 129.781 20.5625C129.896 20.3229 129.974 19.9635 130.016 19.4844C130.068 18.9948 130.094 18.2969 130.094 17.3906V14.0781C130.094 12.9427 130.052 12.1094 129.969 11.5781C129.896 11.0469 129.75 10.6198 129.531 10.2969C129.292 9.93229 128.948 9.65104 128.5 9.45312C128.052 9.24479 127.557 9.14062 127.016 9.14062C126.432 9.14062 125.885 9.25521 125.375 9.48438C124.875 9.71354 124.479 10.026 124.188 10.4219C123.875 10.8385 123.667 11.3125 123.562 11.8438C123.469 12.3646 123.422 13.2344 123.422 14.4531V17.5156L123.438 18.6719C123.438 19.3802 123.479 19.901 123.562 20.2344C123.646 20.5573 123.807 20.8281 124.047 21.0469C124.339 21.3281 124.875 21.5417 125.656 21.6875V22H118.766V21.6875C119.391 21.6042 119.839 21.4896 120.109 21.3438C120.38 21.1875 120.599 20.9271 120.766 20.5625C120.88 20.3229 120.958 19.9635 121 19.4844C121.052 18.9948 121.078 18.2917 121.078 17.375V13.5156C121.078 12.4427 121.052 11.6927 121 11.2656C120.948 10.8281 120.833 10.474 120.656 10.2031C120.479 9.91146 120.266 9.70312 120.016 9.57812C119.766 9.44271 119.406 9.35938 118.938 9.32812V9.01562L123.203 8.45312ZM138.719 13.5C138.677 14.0104 138.656 14.3802 138.656 14.6094C138.656 15.5156 138.786 16.401 139.047 17.2656C139.318 18.1302 139.682 18.849 140.141 19.4219C140.609 20.0052 141.188 20.4635 141.875 20.7969C142.573 21.1302 143.302 21.2969 144.062 21.2969C144.625 21.2969 145.156 21.2031 145.656 21.0156C146.167 20.8281 146.589 20.5677 146.922 20.2344C147.297 19.8698 147.62 19.2865 147.891 18.4844L148.203 18.5938C147.932 19.8125 147.349 20.7344 146.453 21.3594C145.568 21.974 144.385 22.2812 142.906 22.2812C141.625 22.2812 140.526 22.0781 139.609 21.6719C138.693 21.2656 137.917 20.6406 137.281 19.7969C136.396 18.6198 135.953 17.1719 135.953 15.4531C135.953 13.1094 136.792 11.2708 138.469 9.9375C139.688 8.96875 141.078 8.48438 142.641 8.48438C143.474 8.48438 144.245 8.63542 144.953 8.9375C145.661 9.22917 146.26 9.65625 146.75 10.2188C147.51 11.0938 147.891 12.1875 147.891 13.5H138.719ZM145.562 12.8906C145.49 11.849 145.297 11.0469 144.984 10.4844C144.703 9.97396 144.328 9.57292 143.859 9.28125C143.391 8.97917 142.891 8.82812 142.359 8.82812C141.464 8.82812 140.677 9.21354 140 9.98438C139.333 10.7552 138.938 11.724 138.812 12.8906H145.562ZM154.312 10.8906C154.688 10.2344 155.109 9.73958 155.578 9.40625C156.443 8.79167 157.427 8.48438 158.531 8.48438C159.208 8.48438 159.724 8.63542 160.078 8.9375C160.401 9.20833 160.562 9.54167 160.562 9.9375C160.562 10.2292 160.464 10.4688 160.266 10.6562C160.078 10.8438 159.833 10.9375 159.531 10.9375C159.177 10.9375 158.87 10.7917 158.609 10.5L158.125 9.96875C157.74 9.5625 157.286 9.35938 156.766 9.35938C156.057 9.35938 155.505 9.81771 155.109 10.7344C154.714 11.651 154.516 12.9271 154.516 14.5625V17.4844L154.531 18.6719C154.531 19.3802 154.573 19.901 154.656 20.2344C154.74 20.5573 154.901 20.8281 155.141 21.0469C155.432 21.3281 155.969 21.5417 156.75 21.6875V22H149.859V21.6875C150.484 21.6042 150.932 21.4896 151.203 21.3438C151.474 21.1875 151.693 20.9271 151.859 20.5625C151.974 20.3229 152.052 19.9635 152.094 19.4844C152.146 18.9948 152.172 18.2917 152.172 17.375V13.5156C152.172 12.4427 152.146 11.6927 152.094 11.2656C152.042 10.8281 151.927 10.474 151.75 10.2031C151.573 9.91146 151.359 9.70312 151.109 9.57812C150.859 9.44271 150.5 9.35938 150.031 9.32812V9.01562L154.047 8.45312C154.224 9.40104 154.312 10.2135 154.312 10.8906Z" fill="white"/>
</svg>
