<svg width="40" height="40" viewBox="0 0 40 40" fill="none" xmlns="http://www.w3.org/2000/svg">
<g clip-path="url(#clip0_3271_524)">
<path d="M40 4.16667V40H21.6667V38.3333H38.3333V4.16667C38.3333 2.78833 37.2117 1.66667 35.8333 1.66667H14.1667C12.7883 1.66667 11.6667 2.78833 11.6667 4.16667V17.1383C11.1367 16.95 10.58 16.815 10 16.75V4.16667C10 1.86833 11.8683 0 14.1667 0H35.8333C38.1317 0 40 1.86833 40 4.16667ZM33.3333 6.66667H16.6667V8.33333H33.3333V6.66667ZM16.6667 15H33.3333V13.3333H16.6667V15ZM16.6667 21.6667H30V20H16.6667V21.6667ZM28.3333 25C31.09 25 33.3333 27.2433 33.3333 30C33.3333 32.7567 31.09 35 28.3333 35C25.5767 35 23.3333 32.7567 23.3333 30C23.3333 27.2433 25.5767 25 28.3333 25ZM28.3333 26.6667C26.495 26.6667 25 28.1617 25 30C25 31.8383 26.495 33.3333 28.3333 33.3333C30.1717 33.3333 31.6667 31.8383 31.6667 30C31.6667 28.1617 30.1717 26.6667 28.3333 26.6667ZM16.6667 38.3333H18.3333V40H0V38.3333H1.66667V35C1.66667 33.1617 3.16167 31.6667 5 31.6667H7.3C5.78 27.66 5 25.105 5 24.1C5 21.8 6.83 20 9.16667 20C11.5033 20 13.3333 21.8 13.3333 24.1C13.3333 25.105 12.5533 27.66 11.0333 31.6667H13.3333C15.1717 31.6667 16.6667 33.1617 16.6667 35V38.3333ZM9.08 31.6667H9.25333C11.49 25.845 11.6667 24.4067 11.6667 24.1C11.6667 22.7367 10.5683 21.6667 9.16667 21.6667C7.765 21.6667 6.66667 22.7367 6.66667 24.1C6.66667 24.4067 6.84333 25.845 9.08 31.6667ZM3.33333 38.3333H15V35C15 34.08 14.2533 33.3333 13.3333 33.3333H5C4.08 33.3333 3.33333 34.08 3.33333 35V38.3333Z" fill="#021D78"/>
</g>
<defs>
<clipPath id="clip0_3271_524">
<rect width="40" height="40" fill="white"/>
</clipPath>
</defs>
</svg>
