<svg width="12" height="18" viewBox="0 0 12 18" fill="none" xmlns="http://www.w3.org/2000/svg">
<path d="M6 8.57145C5.43168 8.57145 4.88663 8.34568 4.48477 7.94382C4.08291 7.54195 3.85714 6.99691 3.85714 6.42859C3.85714 5.86027 4.08291 5.31522 4.48477 4.91336C4.88663 4.5115 5.43168 4.28573 6 4.28573C6.56832 4.28573 7.11337 4.5115 7.51523 4.91336C7.91709 5.31522 8.14286 5.86027 8.14286 6.42859C8.14286 6.70999 8.08743 6.98864 7.97974 7.24862C7.87205 7.50861 7.71421 7.74483 7.51523 7.94382C7.31625 8.1428 7.08002 8.30064 6.82004 8.40833C6.56005 8.51602 6.2814 8.57145 6 8.57145ZM6 0.428589C4.4087 0.428589 2.88258 1.06073 1.75736 2.18595C0.632141 3.31117 0 4.83729 0 6.42859C0 10.9286 6 17.5714 6 17.5714C6 17.5714 12 10.9286 12 6.42859C12 4.83729 11.3679 3.31117 10.2426 2.18595C9.11742 1.06073 7.5913 0.428589 6 0.428589Z" fill="#021D78"/>
</svg>
