<svg width="243" height="74" viewBox="0 0 243 74" fill="none" xmlns="http://www.w3.org/2000/svg">
<path d="M85.6562 19.6719V20.0312C85.1042 20.0625 84.6615 20.1302 84.3281 20.2344C83.9948 20.3385 83.6875 20.5104 83.4062 20.75C83.0104 21.0833 82.7344 21.5156 82.5781 22.0469C82.4323 22.5781 82.3594 23.3958 82.3594 24.5V38.4531C82.3594 39.8698 82.2552 40.9531 82.0469 41.7031C81.8385 42.4635 81.4583 43.1146 80.9062 43.6562C80.3542 44.1875 79.6094 44.6146 78.6719 44.9375C77.7344 45.2708 76.776 45.4375 75.7969 45.4375C75.2135 45.4375 74.6458 45.375 74.0938 45.25C73.5417 45.125 73.099 44.9583 72.7656 44.75C72.151 44.375 71.8438 43.875 71.8438 43.25C71.8438 42.875 71.9635 42.5677 72.2031 42.3281C72.4427 42.0885 72.7552 41.9688 73.1406 41.9688C73.5156 41.9688 73.8333 42.0938 74.0938 42.3438C74.2188 42.4688 74.3281 42.6198 74.4219 42.7969C74.5156 42.9844 74.6562 43.3229 74.8438 43.8125C75.0208 44.2604 75.2292 44.5781 75.4688 44.7656C75.7083 44.9635 76.0208 45.0625 76.4062 45.0625C76.9062 45.0625 77.3385 44.901 77.7031 44.5781C78.0781 44.2552 78.3646 43.7865 78.5625 43.1719C78.8229 42.3281 78.9531 40.7083 78.9531 38.3125V24.4844C78.9531 23.8281 78.9062 23.2344 78.8125 22.7031C78.6979 22.026 78.4479 21.4948 78.0625 21.1094C77.4583 20.474 76.6354 20.1146 75.5938 20.0312V19.6719H85.6562ZM97.8906 41.2656C97.7552 40.6406 97.6875 40 97.6875 39.3438C96.3854 40.6354 94.8438 41.2812 93.0625 41.2812C91.7604 41.2812 90.7135 40.9635 89.9219 40.3281C89.151 39.7031 88.7656 38.8177 88.7656 37.6719V32.2344L88.75 31.0469C88.75 30.3385 88.7083 29.8229 88.625 29.5C88.5417 29.1771 88.3854 28.901 88.1562 28.6719C87.8542 28.3906 87.3125 28.1823 86.5312 28.0469V27.7188H91.1094V35.6406C91.1094 36.7552 91.1458 37.5833 91.2188 38.125C91.3021 38.6562 91.4479 39.0938 91.6562 39.4375C91.8854 39.7917 92.2135 40.0729 92.6406 40.2812C93.0677 40.4792 93.5469 40.5781 94.0781 40.5781C94.6615 40.5781 95.2083 40.4635 95.7188 40.2344C96.2292 40.0052 96.6302 39.6927 96.9219 39.2969C97.224 38.8906 97.4219 38.4219 97.5156 37.8906C97.6198 37.3594 97.6719 36.4844 97.6719 35.2656V32.2031L97.6562 31.0469C97.6562 30.3385 97.6146 29.8229 97.5312 29.5C97.4583 29.1771 97.3021 28.901 97.0625 28.6719C96.7708 28.3906 96.2292 28.1823 95.4375 28.0469V27.7188H100.016V36.2031C100.016 37.276 100.042 38.0312 100.094 38.4688C100.156 38.8958 100.271 39.2448 100.438 39.5156C100.625 39.8073 100.844 40.0208 101.094 40.1562C101.344 40.2812 101.703 40.3594 102.172 40.3906V40.7031L97.8906 41.2656ZM107.469 29.8906C107.844 29.2344 108.266 28.7396 108.734 28.4062C109.599 27.7917 110.583 27.4844 111.688 27.4844C112.365 27.4844 112.88 27.6354 113.234 27.9375C113.557 28.2083 113.719 28.5417 113.719 28.9375C113.719 29.2292 113.62 29.4688 113.422 29.6562C113.234 29.8438 112.99 29.9375 112.688 29.9375C112.333 29.9375 112.026 29.7917 111.766 29.5L111.281 28.9688C110.896 28.5625 110.443 28.3594 109.922 28.3594C109.214 28.3594 108.661 28.8177 108.266 29.7344C107.87 30.651 107.672 31.9271 107.672 33.5625V36.4844L107.688 37.6719C107.688 38.3802 107.729 38.901 107.812 39.2344C107.896 39.5573 108.057 39.8281 108.297 40.0469C108.589 40.3281 109.125 40.5417 109.906 40.6875V41H103.016V40.6875C103.641 40.6042 104.089 40.4896 104.359 40.3438C104.63 40.1875 104.849 39.9271 105.016 39.5625C105.13 39.3229 105.208 38.9635 105.25 38.4844C105.302 37.9948 105.328 37.2917 105.328 36.375V32.5156C105.328 31.4427 105.302 30.6927 105.25 30.2656C105.198 29.8281 105.083 29.474 104.906 29.2031C104.729 28.9115 104.516 28.7031 104.266 28.5781C104.016 28.4427 103.656 28.3594 103.188 28.3281V28.0156L107.203 27.4531C107.38 28.401 107.469 29.2135 107.469 29.8906ZM114.312 28.0156L118.797 27.4531V36.4844L118.812 37.6719C118.812 38.3802 118.854 38.901 118.938 39.2344C119.021 39.5573 119.182 39.8281 119.422 40.0469C119.714 40.3281 120.25 40.5417 121.031 40.6875V41H114.141V40.6875C114.766 40.6042 115.214 40.4896 115.484 40.3438C115.755 40.1875 115.974 39.9271 116.141 39.5625C116.255 39.3229 116.333 38.9635 116.375 38.4844C116.427 37.9948 116.453 37.2917 116.453 36.375V32.5156C116.453 31.4427 116.427 30.6927 116.375 30.2656C116.323 29.8281 116.208 29.474 116.031 29.2031C115.854 28.9115 115.641 28.7031 115.391 28.5781C115.141 28.4427 114.781 28.3594 114.312 28.3281V28.0156ZM117.562 21.875C117.156 21.875 116.818 21.7448 116.547 21.4844C116.286 21.224 116.156 20.8958 116.156 20.5C116.156 20.1146 116.292 19.7917 116.562 19.5312C116.833 19.2604 117.167 19.125 117.562 19.125C117.958 19.125 118.292 19.2604 118.562 19.5312C118.833 19.7917 118.969 20.1146 118.969 20.5C118.969 20.8958 118.833 21.224 118.562 21.4844C118.302 21.7448 117.969 21.875 117.562 21.875ZM122.969 41V36.5781H123.219C123.51 37.6615 123.875 38.526 124.312 39.1719C125.115 40.349 126.052 40.9375 127.125 40.9375C127.781 40.9375 128.349 40.7396 128.828 40.3438C129.349 39.9062 129.609 39.2865 129.609 38.4844C129.609 37.8281 129.422 37.2552 129.047 36.7656C128.839 36.5052 128.573 36.2656 128.25 36.0469C127.938 35.8281 127.406 35.5208 126.656 35.125C125.344 34.4271 124.469 33.8438 124.031 33.375C123.406 32.7083 123.094 31.9375 123.094 31.0625C123.094 30.125 123.406 29.3177 124.031 28.6406C124.75 27.8698 125.703 27.4844 126.891 27.4844C127.422 27.4844 127.917 27.5781 128.375 27.7656L128.906 28C129.073 28.0625 129.219 28.0938 129.344 28.0938C129.542 28.0938 129.729 27.9375 129.906 27.625H130.219L130.391 31.1719H130.062C129.948 30.6719 129.823 30.2708 129.688 29.9688C129.562 29.6667 129.38 29.375 129.141 29.0938C128.818 28.6979 128.443 28.3906 128.016 28.1719C127.589 27.9427 127.167 27.8281 126.75 27.8281C126.167 27.8281 125.667 28.0417 125.25 28.4688C124.844 28.8854 124.641 29.401 124.641 30.0156C124.641 30.526 124.823 30.9896 125.188 31.4062C125.562 31.8125 126.135 32.1875 126.906 32.5312L128.562 33.2812C129.552 33.7292 130.292 34.2865 130.781 34.9531C131.271 35.6198 131.516 36.4062 131.516 37.3125C131.516 38.4062 131.161 39.3125 130.453 40.0312C129.641 40.8646 128.599 41.2812 127.328 41.2812C126.641 41.2812 125.943 41.1458 125.234 40.875C124.776 40.6979 124.5 40.599 124.406 40.5781C124.312 40.5469 124.193 40.5312 124.047 40.5312C123.682 40.5312 123.406 40.6875 123.219 41H122.969ZM140.25 30.4844V36.0938C140.25 37.1562 140.307 37.9479 140.422 38.4688C140.547 38.9792 140.771 39.401 141.094 39.7344C141.375 40.026 141.698 40.2448 142.062 40.3906C142.438 40.526 142.927 40.6094 143.531 40.6406V41H133.547V40.6406C134.151 40.6094 134.635 40.526 135 40.3906C135.375 40.2448 135.703 40.026 135.984 39.7344C136.318 39.401 136.542 38.9792 136.656 38.4688C136.771 37.9583 136.828 37.1667 136.828 36.0938V24.5781C136.828 23.6823 136.786 22.9948 136.703 22.5156C136.63 22.026 136.5 21.6302 136.312 21.3281C136.042 20.9115 135.698 20.6042 135.281 20.4062C134.865 20.1979 134.323 20.0729 133.656 20.0312H133.547V19.6719H142.969C144.615 19.6719 145.828 19.7552 146.609 19.9219C147.391 20.0885 148.104 20.4219 148.75 20.9219C150.229 22.0469 150.969 23.5469 150.969 25.4219C150.969 27.3281 150.219 28.724 148.719 29.6094C147.938 30.0677 146.99 30.3438 145.875 30.4375C145.521 30.4688 144.667 30.4844 143.312 30.4844H140.25ZM140.25 29.9844H141.781C142.812 29.9844 143.604 29.9115 144.156 29.7656C144.719 29.6094 145.219 29.3281 145.656 28.9219C146.677 27.9948 147.188 26.7604 147.188 25.2188C147.188 24.3646 147.036 23.5833 146.734 22.875C146.443 22.1562 146.021 21.5729 145.469 21.125C144.833 20.5938 144.078 20.2812 143.203 20.1875C142.964 20.1667 142.417 20.1562 141.562 20.1562H140.25V29.9844ZM151.875 19.6094L156.359 19.0469V36.4844L156.375 37.6719C156.375 38.3802 156.417 38.901 156.5 39.2344C156.583 39.5573 156.745 39.8281 156.984 40.0469C157.276 40.3281 157.812 40.5417 158.594 40.6875V41H151.703V40.6875C152.328 40.6042 152.776 40.4896 153.047 40.3438C153.318 40.1875 153.536 39.9271 153.703 39.5625C153.818 39.3229 153.896 38.9635 153.938 38.4844C153.99 37.9948 154.016 37.2917 154.016 36.375V24.1094C154.016 23.0469 153.99 22.2969 153.938 21.8594C153.885 21.4219 153.771 21.0677 153.594 20.7969C153.417 20.5052 153.203 20.2969 152.953 20.1719C152.703 20.0469 152.344 19.9688 151.875 19.9375V19.6094ZM172.812 39.4844L173.078 39.6406C172.703 40.7344 171.844 41.2812 170.5 41.2812C169.76 41.2812 169.146 41.099 168.656 40.7344C168.333 40.4948 168 40.0781 167.656 39.4844C166.958 40.1094 166.432 40.5208 166.078 40.7188C165.401 41.0938 164.615 41.2812 163.719 41.2812C162.573 41.2812 161.661 41.0052 160.984 40.4531C160.318 39.901 159.984 39.1562 159.984 38.2188C159.984 37.3542 160.26 36.6302 160.812 36.0469C161.125 35.724 161.484 35.4688 161.891 35.2812C162.297 35.0833 162.885 34.8854 163.656 34.6875C164.562 34.4583 165.229 34.2656 165.656 34.1094C166.094 33.9531 166.458 33.7656 166.75 33.5469C167.083 33.3073 167.312 33.026 167.438 32.7031C167.562 32.3802 167.625 31.9323 167.625 31.3594C167.625 30.1406 167.396 29.25 166.938 28.6875C166.729 28.4271 166.458 28.2188 166.125 28.0625C165.802 27.9062 165.464 27.8281 165.109 27.8281C164.682 27.8281 164.302 27.9375 163.969 28.1562C163.635 28.375 163.385 28.6771 163.219 29.0625L162.828 29.9688C162.62 30.4583 162.245 30.7031 161.703 30.7031C161.349 30.7031 161.052 30.5885 160.812 30.3594C160.573 30.1198 160.453 29.8229 160.453 29.4688C160.453 28.9375 160.828 28.4896 161.578 28.125C161.984 27.9375 162.484 27.7865 163.078 27.6719C163.682 27.5469 164.271 27.4844 164.844 27.4844C165.49 27.4844 166.161 27.5677 166.859 27.7344C167.557 27.901 168.141 28.1146 168.609 28.375C169.286 28.7604 169.708 29.2604 169.875 29.875C169.958 30.1875 170 30.7135 170 31.4531V37.2344C170 38.2135 170.042 38.8802 170.125 39.2344C170.302 39.974 170.729 40.3438 171.406 40.3438C171.729 40.3438 171.979 40.2865 172.156 40.1719C172.344 40.0573 172.562 39.8281 172.812 39.4844ZM167.656 33.3281C167.094 33.7969 166.474 34.2083 165.797 34.5625C165.036 34.9688 164.51 35.276 164.219 35.4844C163.927 35.6927 163.661 35.9427 163.422 36.2344C162.932 36.8385 162.688 37.5417 162.688 38.3438C162.688 39.0312 162.875 39.599 163.25 40.0469C163.635 40.4948 164.12 40.7188 164.703 40.7188C165.214 40.7188 165.693 40.5625 166.141 40.25C166.599 39.9271 166.943 39.5 167.172 38.9688C167.495 38.2708 167.656 37.2604 167.656 35.9375V33.3281ZM177.547 27.4531C177.693 28.0573 177.766 28.6198 177.766 29.1406V29.3906C179.057 28.1198 180.594 27.4844 182.375 27.4844C183.708 27.4844 184.781 27.7969 185.594 28.4219C186.396 29.0365 186.797 29.9115 186.797 31.0469V37.6719C186.797 38.3802 186.839 38.901 186.922 39.2344C187.005 39.5573 187.167 39.8281 187.406 40.0469C187.698 40.3281 188.234 40.5417 189.016 40.6875V41H182.125V40.6875C182.75 40.6042 183.198 40.4896 183.469 40.3438C183.74 40.1875 183.958 39.9271 184.125 39.5625C184.24 39.3229 184.318 38.9635 184.359 38.4844C184.411 37.9948 184.438 37.2969 184.438 36.3906V33.0781C184.438 31.9427 184.396 31.1094 184.312 30.5781C184.24 30.0469 184.094 29.6198 183.875 29.2969C183.635 28.9323 183.292 28.651 182.844 28.4531C182.396 28.2448 181.901 28.1406 181.359 28.1406C180.776 28.1406 180.229 28.2552 179.719 28.4844C179.219 28.7135 178.823 29.026 178.531 29.4219C178.219 29.8385 178.01 30.3125 177.906 30.8438C177.812 31.3646 177.766 32.2344 177.766 33.4531V36.5156L177.781 37.6719C177.781 38.3802 177.823 38.901 177.906 39.2344C177.99 39.5573 178.151 39.8281 178.391 40.0469C178.682 40.3281 179.219 40.5417 180 40.6875V41H173.109V40.6875C173.734 40.6042 174.182 40.4896 174.453 40.3438C174.724 40.1875 174.943 39.9271 175.109 39.5625C175.224 39.3229 175.302 38.9635 175.344 38.4844C175.396 37.9948 175.422 37.2917 175.422 36.375V32.5156C175.422 31.4427 175.396 30.6927 175.344 30.2656C175.292 29.8281 175.177 29.474 175 29.2031C174.823 28.9115 174.609 28.7031 174.359 28.5781C174.109 28.4427 173.75 28.3594 173.281 28.3281V28.0156L177.547 27.4531ZM194.203 27.4531C194.349 28.0573 194.422 28.6198 194.422 29.1406V29.3906C195.714 28.1198 197.25 27.4844 199.031 27.4844C200.365 27.4844 201.438 27.7969 202.25 28.4219C203.052 29.0365 203.453 29.9115 203.453 31.0469V37.6719C203.453 38.3802 203.495 38.901 203.578 39.2344C203.661 39.5573 203.823 39.8281 204.062 40.0469C204.354 40.3281 204.891 40.5417 205.672 40.6875V41H198.781V40.6875C199.406 40.6042 199.854 40.4896 200.125 40.3438C200.396 40.1875 200.615 39.9271 200.781 39.5625C200.896 39.3229 200.974 38.9635 201.016 38.4844C201.068 37.9948 201.094 37.2969 201.094 36.3906V33.0781C201.094 31.9427 201.052 31.1094 200.969 30.5781C200.896 30.0469 200.75 29.6198 200.531 29.2969C200.292 28.9323 199.948 28.651 199.5 28.4531C199.052 28.2448 198.557 28.1406 198.016 28.1406C197.432 28.1406 196.885 28.2552 196.375 28.4844C195.875 28.7135 195.479 29.026 195.188 29.4219C194.875 29.8385 194.667 30.3125 194.562 30.8438C194.469 31.3646 194.422 32.2344 194.422 33.4531V36.5156L194.438 37.6719C194.438 38.3802 194.479 38.901 194.562 39.2344C194.646 39.5573 194.807 39.8281 195.047 40.0469C195.339 40.3281 195.875 40.5417 196.656 40.6875V41H189.766V40.6875C190.391 40.6042 190.839 40.4896 191.109 40.3438C191.38 40.1875 191.599 39.9271 191.766 39.5625C191.88 39.3229 191.958 38.9635 192 38.4844C192.052 37.9948 192.078 37.2917 192.078 36.375V32.5156C192.078 31.4427 192.052 30.6927 192 30.2656C191.948 29.8281 191.833 29.474 191.656 29.2031C191.479 28.9115 191.266 28.7031 191.016 28.5781C190.766 28.4427 190.406 28.3594 189.938 28.3281V28.0156L194.203 27.4531ZM209.719 32.5C209.677 33.0104 209.656 33.3802 209.656 33.6094C209.656 34.5156 209.786 35.401 210.047 36.2656C210.318 37.1302 210.682 37.849 211.141 38.4219C211.609 39.0052 212.188 39.4635 212.875 39.7969C213.573 40.1302 214.302 40.2969 215.062 40.2969C215.625 40.2969 216.156 40.2031 216.656 40.0156C217.167 39.8281 217.589 39.5677 217.922 39.2344C218.297 38.8698 218.62 38.2865 218.891 37.4844L219.203 37.5938C218.932 38.8125 218.349 39.7344 217.453 40.3594C216.568 40.974 215.385 41.2812 213.906 41.2812C212.625 41.2812 211.526 41.0781 210.609 40.6719C209.693 40.2656 208.917 39.6406 208.281 38.7969C207.396 37.6198 206.953 36.1719 206.953 34.4531C206.953 32.1094 207.792 30.2708 209.469 28.9375C210.688 27.9688 212.078 27.4844 213.641 27.4844C214.474 27.4844 215.245 27.6354 215.953 27.9375C216.661 28.2292 217.26 28.6562 217.75 29.2188C218.51 30.0938 218.891 31.1875 218.891 32.5H209.719ZM216.562 31.8906C216.49 30.849 216.297 30.0469 215.984 29.4844C215.703 28.974 215.328 28.5729 214.859 28.2812C214.391 27.9792 213.891 27.8281 213.359 27.8281C212.464 27.8281 211.677 28.2135 211 28.9844C210.333 29.7552 209.938 30.724 209.812 31.8906H216.562ZM225.312 29.8906C225.688 29.2344 226.109 28.7396 226.578 28.4062C227.443 27.7917 228.427 27.4844 229.531 27.4844C230.208 27.4844 230.724 27.6354 231.078 27.9375C231.401 28.2083 231.562 28.5417 231.562 28.9375C231.562 29.2292 231.464 29.4688 231.266 29.6562C231.078 29.8438 230.833 29.9375 230.531 29.9375C230.177 29.9375 229.87 29.7917 229.609 29.5L229.125 28.9688C228.74 28.5625 228.286 28.3594 227.766 28.3594C227.057 28.3594 226.505 28.8177 226.109 29.7344C225.714 30.651 225.516 31.9271 225.516 33.5625V36.4844L225.531 37.6719C225.531 38.3802 225.573 38.901 225.656 39.2344C225.74 39.5573 225.901 39.8281 226.141 40.0469C226.432 40.3281 226.969 40.5417 227.75 40.6875V41H220.859V40.6875C221.484 40.6042 221.932 40.4896 222.203 40.3438C222.474 40.1875 222.693 39.9271 222.859 39.5625C222.974 39.3229 223.052 38.9635 223.094 38.4844C223.146 37.9948 223.172 37.2917 223.172 36.375V32.5156C223.172 31.4427 223.146 30.6927 223.094 30.2656C223.042 29.8281 222.927 29.474 222.75 29.2031C222.573 28.9115 222.359 28.7031 222.109 28.5781C221.859 28.4427 221.5 28.3594 221.031 28.3281V28.0156L225.047 27.4531C225.224 28.401 225.312 29.2135 225.312 29.8906Z" fill="#021D78"/>
<path d="M104.2 61V54H106.7C107.047 54 107.347 54.0533 107.6 54.16C107.86 54.26 108.07 54.39 108.23 54.55C108.397 54.71 108.52 54.8867 108.6 55.08C108.68 55.2733 108.72 55.4633 108.72 55.65C108.72 55.8633 108.673 56.0667 108.58 56.26C108.487 56.4467 108.36 56.6133 108.2 56.76C108.047 56.9 107.867 57.0167 107.66 57.11C107.453 57.1967 107.233 57.24 107 57.24V57.28C107.147 57.2867 107.34 57.31 107.58 57.35C107.82 57.39 108.053 57.47 108.28 57.59C108.507 57.71 108.7 57.8833 108.86 58.11C109.027 58.3367 109.11 58.64 109.11 59.02C109.11 59.26 109.067 59.5 108.98 59.74C108.9 59.9733 108.767 60.1833 108.58 60.37C108.393 60.5567 108.147 60.71 107.84 60.83C107.533 60.9433 107.157 61 106.71 61H104.2ZM105.11 60.56H106.56C106.773 60.56 106.973 60.53 107.16 60.47C107.353 60.4033 107.52 60.3067 107.66 60.18C107.8 60.0533 107.91 59.9 107.99 59.72C108.077 59.54 108.12 59.3333 108.12 59.1C108.12 58.8867 108.08 58.6833 108 58.49C107.927 58.2967 107.81 58.1267 107.65 57.98C107.497 57.8333 107.3 57.7167 107.06 57.63C106.82 57.5433 106.537 57.5 106.21 57.5H105.11V60.56ZM105.11 57.06H106.31C106.51 57.06 106.697 57.0267 106.87 56.96C107.05 56.8933 107.207 56.8 107.34 56.68C107.48 56.56 107.587 56.4167 107.66 56.25C107.74 56.0833 107.78 55.9033 107.78 55.71C107.78 55.5567 107.753 55.4033 107.7 55.25C107.647 55.0967 107.56 54.96 107.44 54.84C107.327 54.72 107.177 54.6233 106.99 54.55C106.81 54.4767 106.59 54.44 106.33 54.44H105.11V57.06ZM112.351 59.83H112.391L113.961 56H114.451L112.031 61.95C111.958 62.13 111.881 62.31 111.801 62.49C111.721 62.6767 111.628 62.8433 111.521 62.99C111.415 63.1433 111.291 63.2667 111.151 63.36C111.011 63.4533 110.848 63.5 110.661 63.5C110.528 63.5 110.385 63.4733 110.231 63.42C110.078 63.3667 109.938 63.2833 109.811 63.17L110.251 62.34C110.311 62.4733 110.395 62.5733 110.501 62.64C110.615 62.7133 110.731 62.75 110.851 62.75C110.978 62.75 111.088 62.7033 111.181 62.61C111.281 62.5167 111.361 62.3933 111.421 62.24L111.951 60.94L109.711 56H110.621L112.351 59.83ZM126.791 53.77V61H125.606V56.33C125.606 56.1433 125.616 55.9417 125.636 55.725L123.451 59.83C123.348 60.0267 123.19 60.125 122.976 60.125H122.786C122.573 60.125 122.415 60.0267 122.311 59.83L120.101 55.71C120.111 55.82 120.12 55.9283 120.126 56.035C120.133 56.1417 120.136 56.24 120.136 56.33V61H118.951V53.77H119.966C120.026 53.77 120.078 53.7717 120.121 53.775C120.165 53.7783 120.203 53.7867 120.236 53.8C120.273 53.8133 120.305 53.835 120.331 53.865C120.361 53.895 120.39 53.935 120.416 53.985L122.581 58C122.638 58.1067 122.69 58.2167 122.736 58.33C122.786 58.4433 122.835 58.56 122.881 58.68C122.928 58.5567 122.976 58.4383 123.026 58.325C123.076 58.2083 123.13 58.0967 123.186 57.99L125.321 53.985C125.348 53.935 125.376 53.895 125.406 53.865C125.436 53.835 125.468 53.8133 125.501 53.8C125.538 53.7867 125.578 53.7783 125.621 53.775C125.665 53.7717 125.716 53.77 125.776 53.77H126.791ZM130.755 57.405C131.001 57.405 131.216 57.375 131.4 57.315C131.583 57.2517 131.735 57.1633 131.855 57.05C131.978 56.9333 132.07 56.7933 132.13 56.63C132.19 56.4633 132.22 56.2783 132.22 56.075C132.22 55.8817 132.19 55.7067 132.13 55.55C132.07 55.3933 131.98 55.26 131.86 55.15C131.74 55.04 131.588 54.9567 131.405 54.9C131.221 54.84 131.005 54.81 130.755 54.81H129.75V57.405H130.755ZM130.755 53.77C131.238 53.77 131.656 53.8267 132.01 53.94C132.363 54.0533 132.655 54.2117 132.885 54.415C133.115 54.6183 133.285 54.8617 133.395 55.145C133.508 55.4283 133.565 55.7383 133.565 56.075C133.565 56.425 133.506 56.7467 133.39 57.04C133.273 57.33 133.098 57.58 132.865 57.79C132.631 58 132.338 58.1633 131.985 58.28C131.635 58.3967 131.225 58.455 130.755 58.455H129.75V61H128.405V53.77H130.755ZM138.446 55.085C138.406 55.155 138.363 55.2067 138.316 55.24C138.273 55.27 138.218 55.285 138.151 55.285C138.081 55.285 138.004 55.26 137.921 55.21C137.841 55.1567 137.744 55.0983 137.631 55.035C137.518 54.9717 137.384 54.915 137.231 54.865C137.081 54.8117 136.903 54.785 136.696 54.785C136.509 54.785 136.346 54.8083 136.206 54.855C136.066 54.8983 135.948 54.96 135.851 55.04C135.758 55.12 135.688 55.2167 135.641 55.33C135.594 55.44 135.571 55.5617 135.571 55.695C135.571 55.865 135.618 56.0067 135.711 56.12C135.808 56.2333 135.934 56.33 136.091 56.41C136.248 56.49 136.426 56.5617 136.626 56.625C136.826 56.6883 137.031 56.7567 137.241 56.83C137.451 56.9 137.656 56.9833 137.856 57.08C138.056 57.1733 138.234 57.2933 138.391 57.44C138.548 57.5833 138.673 57.76 138.766 57.97C138.863 58.18 138.911 58.435 138.911 58.735C138.911 59.0617 138.854 59.3683 138.741 59.655C138.631 59.9383 138.468 60.1867 138.251 60.4C138.038 60.61 137.776 60.7767 137.466 60.9C137.156 61.02 136.801 61.08 136.401 61.08C136.171 61.08 135.944 61.0567 135.721 61.01C135.498 60.9667 135.283 60.9033 135.076 60.82C134.873 60.7367 134.681 60.6367 134.501 60.52C134.321 60.4033 134.161 60.2733 134.021 60.13L134.416 59.485C134.449 59.4383 134.493 59.4 134.546 59.37C134.599 59.3367 134.656 59.32 134.716 59.32C134.799 59.32 134.889 59.355 134.986 59.425C135.083 59.4917 135.198 59.5667 135.331 59.65C135.464 59.7333 135.619 59.81 135.796 59.88C135.976 59.9467 136.191 59.98 136.441 59.98C136.824 59.98 137.121 59.89 137.331 59.71C137.541 59.5267 137.646 59.265 137.646 58.925C137.646 58.735 137.598 58.58 137.501 58.46C137.408 58.34 137.283 58.24 137.126 58.16C136.969 58.0767 136.791 58.0067 136.591 57.95C136.391 57.8933 136.188 57.8317 135.981 57.765C135.774 57.6983 135.571 57.6183 135.371 57.525C135.171 57.4317 134.993 57.31 134.836 57.16C134.679 57.01 134.553 56.8233 134.456 56.6C134.363 56.3733 134.316 56.095 134.316 55.765C134.316 55.5017 134.368 55.245 134.471 54.995C134.578 54.745 134.731 54.5233 134.931 54.33C135.131 54.1367 135.378 53.9817 135.671 53.865C135.964 53.7483 136.301 53.69 136.681 53.69C137.108 53.69 137.501 53.7567 137.861 53.89C138.221 54.0233 138.528 54.21 138.781 54.45L138.446 55.085ZM143.975 54H148.495V54.55H144.885V57.06H147.985V57.52H144.885V60.45H148.495V61H143.975V54ZM153.771 61H152.921V57.71C152.921 57.6433 152.914 57.5367 152.901 57.39C152.888 57.2433 152.844 57.0967 152.771 56.95C152.704 56.8033 152.594 56.6767 152.441 56.57C152.288 56.4567 152.071 56.4 151.791 56.4C151.618 56.4 151.448 56.43 151.281 56.49C151.121 56.55 150.978 56.6433 150.851 56.77C150.724 56.8967 150.624 57.0533 150.551 57.24C150.478 57.4267 150.441 57.65 150.441 57.91V61H149.591V56H150.441V56.64H150.481L150.641 56.48C150.874 56.2467 151.111 56.09 151.351 56.01C151.591 55.9233 151.808 55.8833 152.001 55.89C152.441 55.89 152.781 55.9667 153.021 56.12C153.261 56.2667 153.434 56.4433 153.541 56.65C153.654 56.85 153.721 57.0567 153.741 57.27C153.761 57.4767 153.771 57.64 153.771 57.76V61ZM154.902 56.4V56H155.772V54.46H156.622V56H157.832V56.4H156.622V59.72C156.622 59.8 156.625 59.8933 156.632 60C156.638 60.1 156.658 60.1967 156.692 60.29C156.725 60.3767 156.775 60.45 156.842 60.51C156.915 60.57 157.015 60.6 157.142 60.6C157.302 60.6 157.435 60.54 157.542 60.42C157.648 60.3 157.735 60.17 157.802 60.03L158.272 60.51C157.945 60.8367 157.575 61 157.162 61C156.988 61 156.818 60.97 156.652 60.91C156.485 60.85 156.335 60.76 156.202 60.64C156.075 60.5133 155.972 60.3533 155.892 60.16C155.812 59.9667 155.772 59.74 155.772 59.48V56.4H154.902ZM163.592 58.72H159.792C159.792 59.1267 159.852 59.46 159.972 59.72C160.092 59.98 160.242 60.1833 160.422 60.33C160.602 60.4767 160.795 60.58 161.002 60.64C161.215 60.6933 161.415 60.72 161.602 60.72C161.768 60.72 161.918 60.7033 162.052 60.67C162.192 60.63 162.325 60.5767 162.452 60.51C162.578 60.4433 162.702 60.36 162.822 60.26C162.948 60.16 163.082 60.05 163.222 59.93L163.542 60.25C163.275 60.53 162.962 60.7467 162.602 60.9C162.242 61.0467 161.848 61.12 161.422 61.12C160.982 61.12 160.598 61.0467 160.272 60.9C159.952 60.7467 159.685 60.5467 159.472 60.3C159.265 60.0467 159.108 59.7633 159.002 59.45C158.902 59.13 158.852 58.8033 158.852 58.47C158.852 58.07 158.912 57.7133 159.032 57.4C159.152 57.08 159.318 56.81 159.532 56.59C159.745 56.3633 159.995 56.1933 160.282 56.08C160.568 55.96 160.882 55.9 161.222 55.9C161.542 55.9 161.845 55.9533 162.132 56.06C162.418 56.1667 162.668 56.3267 162.882 56.54C163.102 56.7533 163.275 57.0233 163.402 57.35C163.528 57.6767 163.592 58.0633 163.592 58.51V58.72ZM159.792 58.32H162.722C162.722 57.6733 162.588 57.1667 162.322 56.8C162.062 56.4267 161.695 56.24 161.222 56.24C160.975 56.24 160.762 56.3 160.582 56.42C160.402 56.5333 160.252 56.6867 160.132 56.88C160.018 57.0733 159.932 57.2967 159.872 57.55C159.818 57.7967 159.792 58.0533 159.792 58.32ZM164.894 56H165.744V56.8H165.804C165.924 56.5 166.077 56.2733 166.264 56.12C166.45 55.9667 166.684 55.89 166.964 55.89C166.997 55.89 167.047 55.8967 167.114 55.91C167.187 55.9167 167.264 55.9367 167.344 55.97C167.43 55.9967 167.514 56.0367 167.594 56.09C167.68 56.1433 167.754 56.21 167.814 56.29L167.474 56.91C167.414 56.8233 167.317 56.73 167.184 56.63C167.057 56.53 166.917 56.48 166.764 56.48C166.65 56.48 166.534 56.5067 166.414 56.56C166.294 56.6133 166.184 56.7 166.084 56.82C165.984 56.94 165.9 57.0967 165.834 57.29C165.774 57.4767 165.744 57.7067 165.744 57.98V61H164.894V56ZM168.712 63.5V56H169.562V56.81H169.602C169.849 56.1967 170.369 55.89 171.162 55.89C171.495 55.89 171.802 55.9533 172.082 56.08C172.362 56.2 172.602 56.3767 172.802 56.61C173.009 56.8367 173.169 57.11 173.282 57.43C173.395 57.75 173.452 58.11 173.452 58.51C173.452 58.9033 173.395 59.2633 173.282 59.59C173.169 59.91 173.009 60.1833 172.802 60.41C172.602 60.6367 172.362 60.8133 172.082 60.94C171.802 61.06 171.495 61.12 171.162 61.12C171.002 61.12 170.842 61.1033 170.682 61.07C170.529 61.0367 170.382 60.9833 170.242 60.91C170.102 60.8367 169.975 60.74 169.862 60.62C169.755 60.5 169.669 60.3533 169.602 60.18H169.562V63.5H168.712ZM169.562 58V58.87C169.562 59.1433 169.599 59.3867 169.672 59.6C169.752 59.8133 169.855 59.9967 169.982 60.15C170.109 60.2967 170.255 60.41 170.422 60.49C170.589 60.5633 170.765 60.6 170.952 60.6C171.159 60.6 171.355 60.5633 171.542 60.49C171.729 60.41 171.892 60.2867 172.032 60.12C172.179 59.9467 172.292 59.7267 172.372 59.46C172.459 59.1933 172.502 58.87 172.502 58.49C172.502 58.1167 172.459 57.7967 172.372 57.53C172.292 57.2633 172.182 57.0467 172.042 56.88C171.902 56.7133 171.735 56.5933 171.542 56.52C171.355 56.44 171.159 56.4 170.952 56.4C170.759 56.4 170.575 56.4433 170.402 56.53C170.235 56.61 170.089 56.7233 169.962 56.87C169.835 57.01 169.735 57.18 169.662 57.38C169.595 57.5733 169.562 57.78 169.562 58ZM174.747 56H175.597V56.8H175.657C175.777 56.5 175.931 56.2733 176.117 56.12C176.304 55.9667 176.537 55.89 176.817 55.89C176.851 55.89 176.901 55.8967 176.967 55.91C177.041 55.9167 177.117 55.9367 177.197 55.97C177.284 55.9967 177.367 56.0367 177.447 56.09C177.534 56.1433 177.607 56.21 177.667 56.29L177.327 56.91C177.267 56.8233 177.171 56.73 177.037 56.63C176.911 56.53 176.771 56.48 176.617 56.48C176.504 56.48 176.387 56.5067 176.267 56.56C176.147 56.6133 176.037 56.7 175.937 56.82C175.837 56.94 175.754 57.0967 175.687 57.29C175.627 57.4767 175.597 57.7067 175.597 57.98V61H174.747V56ZM178.886 56H179.736V61H178.886V56ZM178.766 54.42C178.766 54.2733 178.819 54.1467 178.926 54.04C179.032 53.9333 179.159 53.88 179.306 53.88C179.452 53.88 179.579 53.9333 179.686 54.04C179.792 54.1467 179.846 54.2733 179.846 54.42C179.846 54.5667 179.792 54.6933 179.686 54.8C179.579 54.9067 179.452 54.96 179.306 54.96C179.159 54.96 179.032 54.9067 178.926 54.8C178.819 54.6933 178.766 54.5667 178.766 54.42ZM184.832 57.14H184.262C184.262 57.0533 184.238 56.96 184.192 56.86C184.145 56.76 184.072 56.67 183.972 56.59C183.872 56.5033 183.748 56.4333 183.602 56.38C183.455 56.32 183.282 56.29 183.082 56.29C182.882 56.29 182.715 56.32 182.582 56.38C182.448 56.4333 182.342 56.5033 182.262 56.59C182.182 56.67 182.125 56.76 182.092 56.86C182.058 56.9533 182.042 57.0433 182.042 57.13C182.042 57.3367 182.115 57.4967 182.262 57.61C182.415 57.7233 182.605 57.82 182.832 57.9C183.058 57.98 183.302 58.0567 183.562 58.13C183.828 58.2033 184.075 58.3 184.302 58.42C184.528 58.5333 184.715 58.6867 184.862 58.88C185.015 59.0733 185.092 59.33 185.092 59.65C185.092 60.09 184.935 60.4467 184.622 60.72C184.315 60.9867 183.855 61.12 183.242 61.12C182.902 61.12 182.602 61.08 182.342 61C182.088 60.9133 181.872 60.8 181.692 60.66C181.518 60.52 181.388 60.3633 181.302 60.19C181.215 60.01 181.172 59.8267 181.172 59.64H181.822C181.822 59.72 181.845 59.82 181.892 59.94C181.945 60.06 182.028 60.18 182.142 60.3C182.262 60.4133 182.412 60.5133 182.592 60.6C182.778 60.68 183.005 60.72 183.272 60.72C183.485 60.72 183.662 60.6933 183.802 60.64C183.942 60.58 184.052 60.51 184.132 60.43C184.212 60.3433 184.265 60.25 184.292 60.15C184.325 60.05 184.342 59.9533 184.342 59.86C184.342 59.64 184.268 59.4667 184.122 59.34C183.975 59.2133 183.792 59.11 183.572 59.03C183.352 58.9433 183.112 58.8667 182.852 58.8C182.598 58.7267 182.362 58.6333 182.142 58.52C181.922 58.4067 181.738 58.2567 181.592 58.07C181.445 57.8833 181.372 57.63 181.372 57.31C181.372 57.0767 181.415 56.8733 181.502 56.7C181.588 56.52 181.705 56.37 181.852 56.25C182.005 56.13 182.182 56.04 182.382 55.98C182.588 55.92 182.808 55.89 183.042 55.89C183.288 55.89 183.518 55.9233 183.732 55.99C183.952 56.05 184.142 56.1367 184.302 56.25C184.468 56.3567 184.598 56.4867 184.692 56.64C184.785 56.7933 184.832 56.96 184.832 57.14ZM190.886 58.72H187.086C187.086 59.1267 187.146 59.46 187.266 59.72C187.386 59.98 187.536 60.1833 187.716 60.33C187.896 60.4767 188.09 60.58 188.296 60.64C188.51 60.6933 188.71 60.72 188.896 60.72C189.063 60.72 189.213 60.7033 189.346 60.67C189.486 60.63 189.62 60.5767 189.746 60.51C189.873 60.4433 189.996 60.36 190.116 60.26C190.243 60.16 190.376 60.05 190.516 59.93L190.836 60.25C190.57 60.53 190.256 60.7467 189.896 60.9C189.536 61.0467 189.143 61.12 188.716 61.12C188.276 61.12 187.893 61.0467 187.566 60.9C187.246 60.7467 186.98 60.5467 186.766 60.3C186.56 60.0467 186.403 59.7633 186.296 59.45C186.196 59.13 186.146 58.8033 186.146 58.47C186.146 58.07 186.206 57.7133 186.326 57.4C186.446 57.08 186.613 56.81 186.826 56.59C187.04 56.3633 187.29 56.1933 187.576 56.08C187.863 55.96 188.176 55.9 188.516 55.9C188.836 55.9 189.14 55.9533 189.426 56.06C189.713 56.1667 189.963 56.3267 190.176 56.54C190.396 56.7533 190.57 57.0233 190.696 57.35C190.823 57.6767 190.886 58.0633 190.886 58.51V58.72ZM187.086 58.32H190.016C190.016 57.6733 189.883 57.1667 189.616 56.8C189.356 56.4267 188.99 56.24 188.516 56.24C188.27 56.24 188.056 56.3 187.876 56.42C187.696 56.5333 187.546 56.6867 187.426 56.88C187.313 57.0733 187.226 57.2967 187.166 57.55C187.113 57.7967 187.086 58.0533 187.086 58.32Z" fill="#021D78"/>
<line x1="62.25" y1="9" x2="62.25" y2="67" stroke="#021D78" stroke-width="0.5"/>
<path d="M17.3077 55.5C28.8085 59.5 30 52.2762 30 47.7762V33V18H21.8073V18.5C26.2073 18.9 26.976 22.6667 26.8093 24.5L26.8073 49.5C26.8093 52.5 25.8073 54.5 25.3073 55C22.9073 57.4 20.9335 54 19.8085 52.5C18.6085 50.9 17.1469 51.7468 16.8093 52C15.2093 53.2 16.3084 55 17.3077 55.5Z" fill="#021D78"/>
<path d="M39 49.5V50H35.5973H32V34V18H41.5C49.1 18 50.6667 23.3333 50.5 26C50.5 32.4 45.5 34 43 34H36.5V33H40C44.8 33 46 28.3333 46 26C46 20.4 41.6667 19 39.5 19H35.5V34V40C35.5 51 37.2684 49.3333 39 49.5Z" fill="#021D78"/>
</svg>
