<svg width="74" height="74" viewBox="0 0 74 74" fill="none" xmlns="http://www.w3.org/2000/svg">
<g filter="url(#filter0_d_6863_10205)">
<circle cx="33" cy="33" r="33" fill="#09609E"/>
</g>
<g clip-path="url(#clip0_6863_10205)">
<path d="M49.9324 24.2995C49.812 23.8516 49.5181 23.4697 49.116 23.2382C48.7136 23.0055 48.2351 22.9425 47.7863 23.063C47.3381 23.1838 46.9562 23.4774 46.7247 23.8795L46.433 24.387C46.156 24.2278 45.802 24.3215 45.6399 24.5971L44.1585 27.1223L43.651 26.8307C43.5166 26.7529 43.3565 26.7319 43.2067 26.7723C43.0567 26.813 42.9291 26.9116 42.8519 27.0465C42.6939 27.3253 42.7901 27.6796 43.0678 27.8397L43.5753 28.1313L38.6178 36.7223L37.3929 39.9945L36.8097 41.0849C36.4682 41.6789 36.5047 42.4174 36.9031 42.9747L35.5908 44.5843L35.2234 43.663C35.0577 43.2524 34.6741 42.971 34.233 42.9365C33.7916 42.9018 33.3687 43.1199 33.1411 43.4996L32.9312 43.8552L32.733 41.5223C32.6875 40.9704 32.26 40.5267 31.7104 40.4601C31.1605 40.3937 30.6399 40.7232 30.4642 41.2484L29.0294 45.5525C28.9292 45.857 29.0932 46.185 29.3968 46.2876C29.4538 46.3141 29.515 46.33 29.5776 46.334C29.8282 46.3348 30.0515 46.1751 30.1318 45.9376L31.5606 41.6334L31.7648 44.0011C31.8069 44.5063 32.17 44.9263 32.6638 45.0408C33.1576 45.1553 33.6685 44.9377 33.9285 44.5028L34.1444 44.1469L34.5061 45.0627C34.6596 45.4486 35.0067 45.724 35.4177 45.7852C35.8286 45.8464 36.241 45.6844 36.5007 45.36L37.8597 43.6397C38.01 43.679 38.165 43.6986 38.3205 43.698C38.9455 43.7029 39.5259 43.3737 39.8426 42.8346L40.4258 41.8606L42.648 39.1603L47.6579 30.4642L48.1654 30.7558C48.3006 30.8333 48.3992 30.9612 48.4393 31.1118C48.4798 31.2613 48.4587 31.4208 48.3812 31.5549L46.0483 35.5968C45.9603 35.7296 45.9304 35.8925 45.9657 36.0479C46.001 36.2031 46.0981 36.3373 46.2348 36.419C46.3693 36.497 46.5293 36.5181 46.6791 36.4777C46.8292 36.437 46.9568 36.3384 47.0339 36.2034L49.3669 32.1615C49.5995 31.7591 49.6625 31.2807 49.5417 30.8319C49.421 30.3836 49.1274 30.0017 48.7253 29.7702L48.2178 29.4786L49.6759 26.9531C49.8351 26.676 49.7414 26.3223 49.466 26.16L49.7576 25.6525C49.9965 25.2439 50.0597 24.7558 49.9324 24.2995ZM47.7336 24.4627C47.8108 24.3277 47.939 24.2289 48.0896 24.1888C48.2394 24.1517 48.3978 24.1725 48.5327 24.2471C48.668 24.3243 48.7665 24.4525 48.807 24.6028C48.844 24.7526 48.8232 24.911 48.7486 25.0459L48.457 25.5534L47.442 24.9702L47.7336 24.4627ZM39.7842 40.7468L39.4926 40.5777L38.6294 40.0759L39.4576 37.8597L41.2947 38.9211L39.7842 40.7468ZM38.0345 42.4322C37.7882 42.2605 37.7124 41.9301 37.8597 41.6681L38.1513 41.1609L39.166 41.7442L38.8744 42.2457C38.7926 42.3875 38.6554 42.4883 38.4956 42.5239C38.3358 42.5592 38.1687 42.5262 38.0345 42.4322ZM41.9597 37.9648L39.9417 36.7983L44.6076 28.7145L46.6256 29.881L41.9597 37.9648ZM47.2088 28.872L45.1908 27.7055L46.3573 25.6876L48.3753 26.854L47.2088 28.872Z" fill="white"/>
<path d="M24.2022 42.1406L22.1378 44.1996L20.9013 42.9631C20.6737 42.7369 20.3064 42.7369 20.0788 42.9631C19.9683 43.0727 19.9062 43.2216 19.9062 43.3771C19.9062 43.5326 19.9683 43.6818 20.0788 43.7912L21.3154 45.0277C21.5341 45.2447 21.8297 45.3663 22.1378 45.366C22.4476 45.3678 22.7458 45.2462 22.966 45.0277L25.0246 42.9631C25.2228 42.7315 25.2095 42.3867 24.9942 42.1714C24.7786 41.9558 24.4337 41.9424 24.2022 42.1406Z" fill="white"/>
<path d="M17.3359 43.7095C17.3359 46.4476 19.5555 48.667 22.2934 48.667C25.0313 48.667 27.2509 46.4476 27.2509 43.7095C27.2509 43.3874 26.9898 43.1262 26.6677 43.1262C26.3456 43.1262 26.0844 43.3874 26.0844 43.7095C26.0844 45.8032 24.3871 47.5005 22.2934 47.5005C20.1997 47.5005 18.5024 45.8032 18.5024 43.7095C18.5024 41.6157 20.1997 39.9184 22.2934 39.9184C23.1142 39.9162 23.913 40.1824 24.568 40.6768C24.8257 40.8702 25.1914 40.8178 25.3845 40.5601C25.5778 40.3023 25.5257 39.937 25.268 39.7436C23.7658 38.617 21.7558 38.4359 20.0764 39.2754C18.3968 40.1152 17.3359 41.8319 17.3359 43.7095Z" fill="white"/>
<path d="M35.9973 20.6717C36.3194 20.6717 36.5806 20.4109 36.5806 20.0885C36.5806 19.7664 36.3194 19.5052 35.9973 19.5052H20.8332C20.5111 19.5052 20.25 19.7664 20.25 20.0885V22.4214C20.25 22.7438 20.5111 23.0047 20.8332 23.0047H35.9973C36.3194 23.0047 36.5806 22.7438 36.5806 22.4214C36.5806 22.0993 36.3194 21.8382 35.9973 21.8382H21.4165V20.6717H35.9973Z" fill="white"/>
<path d="M22.5832 24.1711C22.2611 24.1711 22 24.4322 22 24.7543C22 25.0767 22.2611 25.3375 22.5832 25.3375H34.2479C34.57 25.3375 34.8311 25.0767 34.8311 24.7543C34.8311 24.4322 34.57 24.1711 34.2479 24.1711H22.5832Z" fill="white"/>
<path d="M37.7425 28.2537H24.9114C24.5893 28.2537 24.3281 28.5149 24.3281 28.837C24.3281 29.1593 24.5893 29.4202 24.9114 29.4202H37.7425C38.0646 29.4202 38.3257 29.1593 38.3257 28.837C38.3257 28.5149 38.0646 28.2537 37.7425 28.2537Z" fill="white"/>
<path d="M31.9171 32.3364C31.9171 32.0143 31.6559 31.7532 31.3339 31.7532H19.6692C19.3471 31.7532 19.0859 32.0143 19.0859 32.3364C19.0859 32.6588 19.3471 32.9196 19.6692 32.9196H31.3339C31.6559 32.9196 31.9171 32.6588 31.9171 32.3364Z" fill="white"/>
<path d="M37.744 31.7532H33.6614C33.3393 31.7532 33.0781 32.0143 33.0781 32.3364C33.0781 32.6588 33.3393 32.9196 33.6614 32.9196H37.744C38.0661 32.9196 38.3272 32.6588 38.3272 32.3364C38.3272 32.0143 38.0661 31.7532 37.744 31.7532Z" fill="white"/>
<path d="M25.5015 35.8358C25.8236 35.8358 26.0847 35.5749 26.0847 35.2525C26.0847 34.9305 25.8236 34.6693 25.5015 34.6693H19.6692C19.3471 34.6693 19.0859 34.9305 19.0859 35.2525C19.0859 35.5749 19.3471 35.8358 19.6692 35.8358H25.5015Z" fill="white"/>
<path d="M27.8332 35.8358H31.9159C32.238 35.8358 32.4991 35.5749 32.4991 35.2525C32.4991 34.9305 32.238 34.6693 31.9159 34.6693H27.8332C27.5111 34.6693 27.25 34.9305 27.25 35.2525C27.25 35.5749 27.5111 35.8358 27.8332 35.8358Z" fill="white"/>
<path d="M41.2455 42.8346C40.9234 42.8346 40.6623 43.0957 40.6623 43.4178V49.2501C40.6623 49.5725 40.4012 49.8334 40.0791 49.8334H16.7497C16.4276 49.8334 16.1665 49.5725 16.1665 49.2501V17.7555C16.1665 17.4334 16.4276 17.1723 16.7497 17.1723H40.0791C40.4012 17.1723 40.6623 17.4334 40.6623 17.7555V28.7088C40.6623 29.0309 40.9234 29.292 41.2455 29.292C41.5676 29.292 41.8288 29.0309 41.8288 28.7088V17.7555C41.8288 16.7892 41.0453 16.0058 40.0791 16.0058H16.7497C15.7834 16.0058 15 16.7892 15 17.7555V49.2501C15 50.2167 15.7834 50.9998 16.7497 50.9998H40.0791C41.0453 50.9998 41.8288 50.2167 41.8288 49.2501V43.4178C41.8288 43.0957 41.5676 42.8346 41.2455 42.8346Z" fill="white"/>
</g>
<defs>
<filter id="filter0_d_6863_10205" x="0" y="0" width="74" height="74" filterUnits="userSpaceOnUse" color-interpolation-filters="sRGB">
<feFlood flood-opacity="0" result="BackgroundImageFix"/>
<feColorMatrix in="SourceAlpha" type="matrix" values="0 0 0 0 0 0 0 0 0 0 0 0 0 0 0 0 0 0 127 0" result="hardAlpha"/>
<feOffset dx="4" dy="4"/>
<feGaussianBlur stdDeviation="2"/>
<feComposite in2="hardAlpha" operator="out"/>
<feColorMatrix type="matrix" values="0 0 0 0 0.4 0 0 0 0 0.4 0 0 0 0 0.4 0 0 0 0.15 0"/>
<feBlend mode="normal" in2="BackgroundImageFix" result="effect1_dropShadow_6863_10205"/>
<feBlend mode="normal" in="SourceGraphic" in2="effect1_dropShadow_6863_10205" result="shape"/>
</filter>
<clipPath id="clip0_6863_10205">
<rect width="35" height="35" fill="white" transform="translate(15 16)"/>
</clipPath>
</defs>
</svg>
