<svg width="74" height="74" viewBox="0 0 74 74" fill="none" xmlns="http://www.w3.org/2000/svg">
<g filter="url(#filter0_d_6863_10219)">
<circle cx="33" cy="33" r="33" fill="#09609E"/>
</g>
<path fill-rule="evenodd" clip-rule="evenodd" d="M35.0582 47.8947H17.3459C17.0427 47.8947 16.7969 47.6489 16.7969 47.3457V20.8185C16.7969 20.673 16.8547 20.5333 16.9577 20.4304L20.7469 16.6412C20.8498 16.5382 20.9895 16.4804 21.1351 16.4804H40.7374C41.0406 16.4804 41.2864 16.7262 41.2864 17.0294V35.595C45.1479 35.8772 48.2097 39.1169 48.2097 43.0483C48.2097 47.1641 44.8542 50.5196 40.7385 50.5196C38.4694 50.5196 36.4307 49.4996 35.0582 47.8947ZM40.1884 35.5951V17.5784H21.6841V20.8185C21.6841 21.1218 21.4383 21.3675 21.1351 21.3675H17.8949V46.7967H34.2776C33.6708 45.7566 33.308 44.558 33.2687 43.2802H22.1169C21.8139 43.2802 21.5679 43.0343 21.5679 42.7312C21.5679 42.4282 21.8139 42.1822 22.1169 42.1822H33.3152C33.4409 41.1019 33.7986 40.0906 34.3369 39.1996H22.1169C21.8139 39.1996 21.5679 38.9536 21.5679 38.6506C21.5679 38.3476 21.8139 38.1016 22.1169 38.1016H35.1448C36.4016 36.6824 38.1878 35.7419 40.1884 35.5951ZM20.5861 18.3549L18.6714 20.2695H20.5861V18.3549ZM40.7385 49.4216C44.2494 49.4216 47.1117 46.5592 47.1117 43.0483C47.1117 39.5374 44.2494 36.673 40.7385 36.673C37.2275 36.673 34.3632 39.5373 34.3632 43.0483C34.3632 46.5592 37.2275 49.4216 40.7385 49.4216ZM39.8275 42.8793L42.8043 39.8714L42.8054 39.8703C43.4175 39.255 44.4166 39.2521 45.0319 39.8642C45.647 40.4761 45.6509 41.4715 45.0391 42.0897L45.0389 42.09C43.6728 43.4685 42.3171 44.8552 40.9449 46.2274C40.3298 46.8423 39.3312 46.8423 38.7163 46.2274L36.4419 43.9509C35.8271 43.3362 35.8262 42.3412 36.4409 41.7233L36.4419 41.7223C37.0569 41.1073 38.0555 41.1073 38.6705 41.7223L39.8275 42.8793ZM39.4413 44.046L37.8941 42.4987C37.7078 42.3124 37.4054 42.3122 37.2188 42.4982C37.0326 42.686 37.0317 42.9879 37.2183 43.1745L39.4927 45.4509C39.6792 45.6374 39.982 45.6374 40.1684 45.4509C41.5394 44.0799 42.8939 42.6945 44.2587 41.3173C44.4441 41.1299 44.444 40.8282 44.2575 40.6427C44.0714 40.4575 43.7693 40.4586 43.584 40.6445L40.2198 44.0439C40.117 44.1477 39.9771 44.2063 39.831 44.2068C39.6849 44.2071 39.5446 44.1492 39.4413 44.046ZM35.9634 21.7821C36.2664 21.7821 36.5124 22.0282 36.5124 22.3311C36.5124 22.6341 36.2664 22.8802 35.9634 22.8802H22.1169C21.8139 22.8802 21.5679 22.6341 21.5679 22.3311C21.5679 22.0282 21.8139 21.7821 22.1169 21.7821H35.9634ZM35.9634 25.8628C36.2664 25.8628 36.5124 26.1087 36.5124 26.4118C36.5124 26.7148 36.2664 26.9608 35.9634 26.9608H22.1169C21.8139 26.9608 21.5679 26.7148 21.5679 26.4118C21.5679 26.1087 21.8139 25.8628 22.1169 25.8628H35.9634ZM35.9634 34.0209C36.2664 34.0209 36.5124 34.267 36.5124 34.57C36.5124 34.873 36.2664 35.119 35.9634 35.119H22.1169C21.8139 35.119 21.5679 34.873 21.5679 34.57C21.5679 34.267 21.8139 34.0209 22.1169 34.0209H35.9634ZM35.9634 29.9403C36.2664 29.9403 36.5124 30.1863 36.5124 30.4894C36.5124 30.7924 36.2664 31.0384 35.9634 31.0384H22.1169C21.8139 31.0384 21.5679 30.7924 21.5679 30.4894C21.5679 30.1863 21.8139 29.9403 22.1169 29.9403H35.9634Z" fill="white"/>
<defs>
<filter id="filter0_d_6863_10219" x="0" y="0" width="74" height="74" filterUnits="userSpaceOnUse" color-interpolation-filters="sRGB">
<feFlood flood-opacity="0" result="BackgroundImageFix"/>
<feColorMatrix in="SourceAlpha" type="matrix" values="0 0 0 0 0 0 0 0 0 0 0 0 0 0 0 0 0 0 127 0" result="hardAlpha"/>
<feOffset dx="4" dy="4"/>
<feGaussianBlur stdDeviation="2"/>
<feComposite in2="hardAlpha" operator="out"/>
<feColorMatrix type="matrix" values="0 0 0 0 0.4 0 0 0 0 0.4 0 0 0 0 0.4 0 0 0 0.15 0"/>
<feBlend mode="normal" in2="BackgroundImageFix" result="effect1_dropShadow_6863_10219"/>
<feBlend mode="normal" in="SourceGraphic" in2="effect1_dropShadow_6863_10219" result="shape"/>
</filter>
</defs>
</svg>
