<svg width="75" height="75" viewBox="0 0 75 75" fill="none" xmlns="http://www.w3.org/2000/svg">
<g filter="url(#filter0_d_6863_10192)">
<g filter="url(#filter1_f_6863_10192)">
<circle cx="34" cy="34" r="33" fill="#09609E"/>
</g>
</g>
<g clip-path="url(#clip0_6863_10192)">
<path d="M30.3788 44.0594C30.2861 42.8534 29.9725 42.2807 29.1359 41.7902C28.5765 41.4623 27.6848 41.219 26.7387 40.977L25.1813 40.594C25.4544 40.3754 25.7044 40.1078 25.9211 39.7939C26.7764 38.5547 26.9312 36.8462 26.2976 35.639C25.7524 34.6002 24.7091 34.0281 23.3598 34.0281C22.0106 34.0281 20.9673 34.6002 20.422 35.639C19.7884 36.8462 19.9433 38.5547 20.7985 39.7939C21.0152 40.1079 21.2652 40.3755 21.5383 40.594L19.9767 40.9781C19.0348 41.219 18.1431 41.4624 17.5837 41.7904C16.7472 42.2809 16.4335 42.8535 16.3408 44.0596C16.3406 44.063 16.3403 44.0665 16.3401 44.0699C16.2258 46.1443 16.2792 48.0542 16.3465 49.6489C16.3959 50.8174 17.3506 51.7326 18.5201 51.7326H28.1995C29.369 51.7326 30.3237 50.8173 30.373 49.6488C30.4403 48.0542 30.4937 46.1443 30.3795 44.0699C30.3792 44.0664 30.379 44.0629 30.3788 44.0595L30.3788 44.0594ZM21.2694 36.0836C21.6467 35.3649 22.3695 34.985 23.3598 34.985C24.3502 34.985 25.0731 35.3649 25.4503 36.0836C25.918 36.9748 25.7848 38.3066 25.1335 39.2501C24.6715 39.9195 24.0543 40.2918 23.3916 40.3029C23.3702 40.3027 23.3488 40.3027 23.3274 40.3029C22.6656 40.2919 22.0483 39.9195 21.5862 39.2501C20.935 38.3065 20.8017 36.9747 21.2694 36.0836ZM29.417 49.6085C29.3893 50.2629 28.8546 50.7756 28.1995 50.7756H27.8199V46.0231C27.8199 45.7588 27.6057 45.5445 27.3414 45.5445C27.0771 45.5445 26.8629 45.7588 26.8629 46.0231V50.7756H19.8568V46.0231C19.8568 45.7588 19.6426 45.5445 19.3783 45.5445C19.114 45.5445 18.8998 45.7588 18.8998 46.0231V50.7756H18.5202C17.8652 50.7756 17.3304 50.2629 17.3028 49.6085C17.2365 48.0381 17.1838 46.1592 17.2955 44.1277C17.3737 43.1188 17.5804 42.9016 18.0678 42.6159C18.5572 42.3289 19.5543 42.0739 20.2097 41.9062L22.267 41.4002C22.6379 41.309 22.9851 41.2626 23.3317 41.2602C23.34 41.2602 23.3481 41.261 23.3564 41.261H23.3624C23.3707 41.261 23.379 41.2603 23.3874 41.2602C23.7342 41.2625 24.0817 41.309 24.4529 41.4003L26.5059 41.9052C27.1656 42.074 28.1626 42.329 28.652 42.6159C29.1394 42.9018 29.3461 43.1187 29.4243 44.1277C29.536 46.1592 29.4833 48.0382 29.417 49.6086L29.417 49.6085ZM50.6596 44.069C50.6594 44.0655 50.6591 44.062 50.6589 44.0587C50.5662 42.8524 50.2525 42.2798 49.4158 41.7893C48.8564 41.4612 47.9646 41.2179 47.0183 40.9759L45.4606 40.5927C45.7338 40.3742 45.9838 40.1065 46.2006 39.7924C47.0561 38.5532 47.2109 36.8444 46.5773 35.6371C46.032 34.5982 44.9885 34.0261 43.6391 34.0261C42.2897 34.0261 41.2463 34.5982 40.701 35.6371C40.0673 36.8444 40.2222 38.5532 41.0777 39.7924C41.2945 40.1065 41.5445 40.3742 41.8176 40.5927L40.2557 40.9769C39.3137 41.2178 38.4219 41.4612 37.8623 41.7893C37.0258 42.2798 36.7121 42.8524 36.6194 44.0586C36.6191 44.0621 36.6189 44.0656 36.6187 44.069C36.5045 46.1442 36.5578 48.0542 36.6251 49.6487C36.6744 50.8173 37.6292 51.7326 38.7989 51.7326H48.4794C49.6489 51.7326 50.6038 50.8172 50.6531 49.6487C50.7205 48.0544 50.7739 46.1447 50.6596 44.069H50.6596ZM41.5483 36.0818C41.9257 35.363 42.6486 34.983 43.639 34.983C44.6295 34.983 45.3525 35.363 45.7298 36.0818C46.1977 36.9732 46.0644 38.305 45.413 39.2487C44.9509 39.9181 44.3338 40.2904 43.671 40.3016C43.6495 40.3014 43.628 40.3014 43.6064 40.3016C42.9447 40.2906 42.3273 39.9182 41.8652 39.2486C41.2138 38.3049 41.0805 36.9731 41.5483 36.0818V36.0818ZM49.697 49.6084C49.6693 50.2629 49.1345 50.7756 48.4794 50.7756H48.0996V46.8187C48.0996 46.5544 47.8854 46.3402 47.6211 46.3402C47.3568 46.3402 47.1426 46.5544 47.1426 46.8187V50.7756H40.1356V46.8187C40.1356 46.5544 39.9213 46.3402 39.6571 46.3402C39.3928 46.3402 39.1785 46.5544 39.1785 46.8187V50.7756H38.7988C38.1436 50.7756 37.6088 50.2629 37.5812 49.6084C37.5149 48.0381 37.4622 46.1592 37.5739 44.1268C37.6521 43.1176 37.8589 42.9006 38.3463 42.6147C38.8358 42.3278 39.8329 42.0727 40.4884 41.905L42.546 41.399C42.9167 41.3078 43.2638 41.2613 43.6103 41.2588C43.6187 41.2589 43.6271 41.2597 43.6356 41.2597H43.6415C43.6501 41.2597 43.6586 41.259 43.6672 41.2588C44.014 41.2612 44.3613 41.3077 44.7322 41.399L46.7854 41.904C47.4452 42.0728 48.4423 42.3278 48.9318 42.6147C49.4193 42.9006 49.626 43.1178 49.7042 44.1268C49.8159 46.1596 49.7632 48.0384 49.697 49.6084ZM39.8951 30.0756C40.5746 30.0756 41.2453 29.9912 41.8925 29.8244L44.7069 32.1114C44.7943 32.1823 44.9012 32.2185 45.0087 32.2185C45.0944 32.2185 45.1804 32.1955 45.2571 32.1489C45.43 32.0438 45.5182 31.8414 45.4773 31.6433L44.7979 28.3525C46.2507 27.1428 47.0778 25.4526 47.0778 23.6714C47.0778 20.1402 43.8557 17.2673 39.8952 17.2673C38.0057 17.2673 36.2845 17.9215 35.0009 18.989C34.7339 18.2132 33.9972 17.6541 33.132 17.6541H21.8983C20.8086 17.6541 19.922 18.5407 19.922 19.6305V27.7124C19.922 28.8022 20.8085 29.6888 21.8983 29.6888H22.9488V32.7987C22.9488 32.9981 23.0724 33.1766 23.2591 33.2467C23.314 33.2673 23.3708 33.2772 23.4272 33.2772C23.5627 33.2772 23.6949 33.2196 23.7876 33.1136L26.7814 29.6887H33.1319C33.9971 29.6887 34.7337 29.1295 35.0007 28.3538C36.2844 29.4212 38.0056 30.0754 39.8951 30.0754L39.8951 30.0756ZM39.8951 18.2244C43.3279 18.2244 46.1207 20.6679 46.1207 23.6715C46.1207 25.2466 45.3404 26.7444 43.9799 27.7809C43.8335 27.8925 43.7641 28.0781 43.8013 28.2583L44.2686 30.5221L42.3049 28.9264C42.2185 28.8562 42.1117 28.8193 42.0031 28.8193C41.9582 28.8193 41.913 28.8256 41.8687 28.8385C41.2338 29.0243 40.5699 29.1185 39.8951 29.1185C36.4623 29.1185 33.6696 26.675 33.6696 23.6715C33.6696 20.6679 36.4623 18.2244 39.8951 18.2244V18.2244ZM33.1319 28.7318H26.5641C26.426 28.7318 26.2947 28.7914 26.2039 28.8955L23.9058 31.5244V29.2103C23.9058 28.9461 23.6916 28.7318 23.4273 28.7318H21.8983C21.3363 28.7318 20.879 28.2746 20.879 27.7125V19.6305C20.879 19.0684 21.3363 18.6112 21.8983 18.6112H33.1319C33.694 18.6112 34.1512 19.0684 34.1512 19.6305V19.8307C33.2484 20.9015 32.7126 22.2317 32.7126 23.6715C32.7126 25.1112 33.2484 26.4414 34.1512 27.5122V27.7125C34.1512 28.2746 33.6939 28.7318 33.1319 28.7318ZM29.4697 20.6286L26.3871 23.7112L25.772 22.6458C25.5953 22.3395 25.3086 22.1202 24.9649 22.0281C24.6213 21.936 24.2633 21.9826 23.9572 22.1595C23.6506 22.3365 23.4311 22.6231 23.3391 22.9666C23.247 23.31 23.2938 23.668 23.4708 23.9745L24.918 26.4812C25.1374 26.8612 25.4979 27.1021 25.9332 27.1595C25.9971 27.1679 26.0606 27.1721 26.1233 27.1721C26.4869 27.1721 26.8245 27.0317 27.0892 26.767L31.3486 22.5076C31.8666 21.9895 31.8666 21.1467 31.3486 20.6286C30.8306 20.1105 29.9877 20.1105 29.4697 20.6286ZM30.6719 21.8309L26.4125 26.0904C26.3132 26.1895 26.1974 26.2289 26.0581 26.2107C25.9189 26.1923 25.817 26.1243 25.7468 26.0026L24.2996 23.496C24.2504 23.4108 24.2376 23.3107 24.2634 23.2143C24.2892 23.1177 24.3504 23.0376 24.4356 22.9883C24.4917 22.9559 24.5545 22.9394 24.6185 22.9394C24.6513 22.9394 24.6844 22.9437 24.7172 22.9525C24.814 22.9784 24.8942 23.0394 24.9432 23.1243L25.8701 24.7297C25.9445 24.8586 26.0746 24.9455 26.222 24.9649C26.3696 24.9844 26.5176 24.934 26.6228 24.8288L30.1463 21.3053C30.2912 21.1603 30.527 21.1603 30.6718 21.3053C30.7413 21.3749 30.7797 21.4682 30.7797 21.5681C30.7797 21.668 30.7413 21.7614 30.6718 21.8309L30.6719 21.8309ZM36.5226 25.0811C37.2999 25.0811 37.9322 24.4488 37.9322 23.6715C37.9322 22.8943 37.2999 22.2619 36.5226 22.2619C35.7454 22.2619 35.113 22.8943 35.113 23.6715C35.113 24.4488 35.7453 25.0811 36.5226 25.0811ZM36.5226 23.2189C36.7721 23.2189 36.9752 23.4219 36.9752 23.6715C36.9752 23.9211 36.7721 24.1241 36.5226 24.1241C36.2731 24.1241 36.07 23.921 36.07 23.6715C36.07 23.422 36.2731 23.2189 36.5226 23.2189ZM39.8951 25.0811C40.6723 25.0811 41.3047 24.4488 41.3047 23.6715C41.3047 22.8943 40.6723 22.2619 39.8951 22.2619C39.1178 22.2619 38.4855 22.8943 38.4855 23.6715C38.4855 24.4488 39.1178 25.0811 39.8951 25.0811ZM39.8951 23.2189C40.1447 23.2189 40.3477 23.4219 40.3477 23.6715C40.3477 23.9211 40.1447 24.1241 39.8951 24.1241C39.6455 24.1241 39.4425 23.921 39.4425 23.6715C39.4425 23.422 39.6456 23.2189 39.8951 23.2189ZM43.2676 25.0811C44.0448 25.0811 44.6772 24.4488 44.6772 23.6715C44.6772 22.8943 44.0448 22.2619 43.2676 22.2619C42.4903 22.2619 41.858 22.8943 41.858 23.6715C41.858 24.4488 42.4903 25.0811 43.2676 25.0811ZM43.2676 23.2189C43.5172 23.2189 43.7202 23.4219 43.7202 23.6715C43.7202 23.9211 43.5172 24.1241 43.2676 24.1241C43.018 24.1241 42.815 23.921 42.815 23.6715C42.815 23.422 43.0181 23.2189 43.2676 23.2189Z" fill="white"/>
</g>
<defs>
<filter id="filter0_d_6863_10192" x="1" y="1" width="74" height="74" filterUnits="userSpaceOnUse" color-interpolation-filters="sRGB">
<feFlood flood-opacity="0" result="BackgroundImageFix"/>
<feColorMatrix in="SourceAlpha" type="matrix" values="0 0 0 0 0 0 0 0 0 0 0 0 0 0 0 0 0 0 127 0" result="hardAlpha"/>
<feOffset dx="4" dy="4"/>
<feGaussianBlur stdDeviation="2"/>
<feComposite in2="hardAlpha" operator="out"/>
<feColorMatrix type="matrix" values="0 0 0 0 0.4 0 0 0 0 0.4 0 0 0 0 0.4 0 0 0 0.15 0"/>
<feBlend mode="normal" in2="BackgroundImageFix" result="effect1_dropShadow_6863_10192"/>
<feBlend mode="normal" in="SourceGraphic" in2="effect1_dropShadow_6863_10192" result="shape"/>
</filter>
<filter id="filter1_f_6863_10192" x="0" y="0" width="68" height="68" filterUnits="userSpaceOnUse" color-interpolation-filters="sRGB">
<feFlood flood-opacity="0" result="BackgroundImageFix"/>
<feBlend mode="normal" in="SourceGraphic" in2="BackgroundImageFix" result="shape"/>
<feGaussianBlur stdDeviation="0.5" result="effect1_foregroundBlur_6863_10192"/>
</filter>
<clipPath id="clip0_6863_10192">
<rect width="35" height="35" fill="white" transform="translate(16 17)"/>
</clipPath>
</defs>
</svg>
