<svg width="74" height="74" viewBox="0 0 74 74" fill="none" xmlns="http://www.w3.org/2000/svg">
<g filter="url(#filter0_d_6863_10197)">
<circle cx="33" cy="33" r="33" fill="#09609E"/>
</g>
<g clip-path="url(#clip0_6863_10197)">
<path d="M15.7734 47.8982C15.7734 49.6105 17.2558 51 19.0492 51H38.2786C39.8856 51 41.2235 49.8828 41.484 48.4181C43.0282 48.1774 44.2109 46.8971 44.2109 45.3557V31.3831H45.7738C45.8827 31.3853 45.9897 31.3555 46.0817 31.2979L48.9407 29.4409C49.1008 29.3373 49.1973 29.1595 49.1973 28.9687C49.1973 28.7782 49.1008 28.6005 48.9407 28.4968L46.0817 26.6211C45.9916 26.5568 45.8846 26.5196 45.7738 26.5141H44.2109V23.4346C44.1969 23.2453 44.1062 23.07 43.9601 22.9487L37.4522 16.3187C37.4158 16.2666 37.3711 16.2208 37.3196 16.1836L37.302 16.167C37.1956 16.0595 37.0503 15.9992 36.8992 16H21.729C20.122 16 18.7724 17.1175 18.5119 18.582C16.9678 18.8226 15.7734 20.1029 15.7734 21.6443V47.8982ZM25.3702 30.254V27.6432H45.1988V30.254H25.3702ZM46.3279 29.7901V28.1512L47.5873 28.9706L46.3279 29.7901ZM37.5779 18.0334L42.2591 22.8448H38.3323C38.1363 22.8492 37.9464 22.7756 37.805 22.64C37.6633 22.5043 37.5817 22.3177 37.5779 22.1218V18.0334ZM21.729 17.129H36.4488V22.1218C36.4574 23.1535 37.3006 23.9826 38.3323 23.9738H43.0819V26.5141H24.8338C24.5105 26.5268 24.2519 26.787 24.2412 27.1103V27.1826L22.5611 27.1492H22.5562C22.2411 27.1575 21.9906 27.416 21.9917 27.7311L22.0093 30.1882C22.0118 30.4983 22.264 30.7483 22.5738 30.748H24.2412V30.831C24.2412 31.1427 24.5223 31.3831 24.8338 31.3831H26.0265L26.0188 32.2298C26.0138 32.5526 26.1348 32.8647 26.3559 33.0998C26.5461 33.3026 26.8093 33.4212 27.0872 33.4294H33.9416C34.2533 33.4294 34.5061 33.1767 34.5061 32.8649C34.5061 32.5532 34.2533 32.3004 33.9416 32.3004H27.15C27.1489 32.2298 27.1481 32.2651 27.1481 32.2566L27.1561 31.3831H43.0819V45.3557C43.0819 46.4453 42.1293 47.3307 40.9586 47.3307H21.729C20.5583 47.3307 19.5839 46.4453 19.5839 45.3557V19.1914C19.5839 19.1627 19.6024 19.1335 19.6024 19.1037C19.604 19.0795 19.604 19.0552 19.6024 19.0307C19.6437 17.9747 20.5848 17.129 21.729 17.129ZM24.2412 29.619H23.1345L23.1105 28.2984L24.2412 28.3116V29.619ZM16.9025 21.6443C16.9025 20.7391 17.6081 19.9748 18.4549 19.7416V45.3557C18.4549 47.0677 19.9359 48.4597 21.729 48.4597H40.3134C40.0523 49.3065 39.2394 49.871 38.2786 49.871H19.0492C17.8785 49.871 16.9025 48.9878 16.9025 47.8982V21.6443Z" fill="white"/>
<path d="M22.5801 36.0403H31.8616C32.1733 36.0403 32.4261 35.7876 32.4261 35.4758C32.4261 35.1641 32.1733 34.9113 31.8616 34.9113H22.5801C22.2681 34.9113 22.0156 35.1641 22.0156 35.4758C22.0156 35.7876 22.2681 36.0403 22.5801 36.0403Z" fill="white"/>
<path d="M22.5801 38.7924H38.7331C39.0451 38.7924 39.2976 38.5396 39.2976 38.2278C39.2976 37.9161 39.0451 37.6633 38.7331 37.6633H22.5801C22.2681 37.6633 22.0156 37.9161 22.0156 38.2278C22.0156 38.5396 22.2681 38.7924 22.5801 38.7924Z" fill="white"/>
<path d="M22.5801 41.5444H38.7331C39.0451 41.5444 39.2976 41.2916 39.2976 40.9799C39.2976 40.6681 39.0451 40.4153 38.7331 40.4153H22.5801C22.2681 40.4153 22.0156 40.6681 22.0156 40.9799C22.0156 41.2916 22.2681 41.5444 22.5801 41.5444Z" fill="white"/>
<path d="M22.5801 44.2964H38.7331C39.0451 44.2964 39.2976 44.0436 39.2976 43.7319C39.2976 43.4201 39.0451 43.1674 38.7331 43.1674H22.5801C22.2681 43.1674 22.0156 43.4201 22.0156 43.7319C22.0156 44.0436 22.2681 44.2964 22.5801 44.2964Z" fill="white"/>
</g>
<defs>
<filter id="filter0_d_6863_10197" x="0" y="0" width="74" height="74" filterUnits="userSpaceOnUse" color-interpolation-filters="sRGB">
<feFlood flood-opacity="0" result="BackgroundImageFix"/>
<feColorMatrix in="SourceAlpha" type="matrix" values="0 0 0 0 0 0 0 0 0 0 0 0 0 0 0 0 0 0 127 0" result="hardAlpha"/>
<feOffset dx="4" dy="4"/>
<feGaussianBlur stdDeviation="2"/>
<feComposite in2="hardAlpha" operator="out"/>
<feColorMatrix type="matrix" values="0 0 0 0 0.4 0 0 0 0 0.4 0 0 0 0 0.4 0 0 0 0.15 0"/>
<feBlend mode="normal" in2="BackgroundImageFix" result="effect1_dropShadow_6863_10197"/>
<feBlend mode="normal" in="SourceGraphic" in2="effect1_dropShadow_6863_10197" result="shape"/>
</filter>
<clipPath id="clip0_6863_10197">
<rect width="35" height="35" fill="white" transform="translate(15 16)"/>
</clipPath>
</defs>
</svg>
