<svg width="18" height="18" viewBox="0 0 18 18" fill="none" xmlns="http://www.w3.org/2000/svg">
<path d="M14.9625 15.75C13.4 15.75 11.8562 15.4095 10.3312 14.7285C8.80625 14.0475 7.41875 13.0817 6.16875 11.8312C4.91875 10.5807 3.95325 9.19325 3.27225 7.66875C2.59125 6.14425 2.2505 4.6005 2.25 3.0375C2.25 2.8125 2.325 2.625 2.475 2.475C2.625 2.325 2.8125 2.25 3.0375 2.25H6.075C6.25 2.25 6.40625 2.3095 6.54375 2.4285C6.68125 2.5475 6.7625 2.688 6.7875 2.85L7.275 5.475C7.3 5.675 7.29375 5.84375 7.25625 5.98125C7.21875 6.11875 7.15 6.2375 7.05 6.3375L5.23125 8.175C5.48125 8.6375 5.778 9.08425 6.1215 9.51525C6.465 9.94625 6.84325 10.362 7.25625 10.7625C7.64375 11.15 8.05 11.5095 8.475 11.841C8.9 12.1725 9.35 12.4755 9.825 12.75L11.5875 10.9875C11.7 10.875 11.847 10.7907 12.0285 10.7347C12.21 10.6788 12.388 10.663 12.5625 10.6875L15.15 11.2125C15.325 11.2625 15.4688 11.3532 15.5812 11.4847C15.6937 11.6163 15.75 11.763 15.75 11.925V14.9625C15.75 15.1875 15.675 15.375 15.525 15.525C15.375 15.675 15.1875 15.75 14.9625 15.75Z" fill="#021D78"/>
</svg>
