<svg width="74" height="74" viewBox="0 0 74 74" fill="none" xmlns="http://www.w3.org/2000/svg">
<g filter="url(#filter0_d_6849_10058)">
<circle cx="33" cy="33" r="33" fill="#09609E"/>
</g>
<g clip-path="url(#clip0_6849_10058)">
<path d="M38.2867 27.5308L36.0219 28.871C35.615 28.5633 35.1688 28.3096 34.686 28.1156V25.479H30.311V28.1156C29.8283 28.3096 29.3821 28.5619 28.9752 28.871L26.7104 27.5308L24.4835 31.2948L26.741 32.6321C26.69 32.9354 26.6652 33.2183 26.6652 33.4998C26.6652 33.7813 26.69 34.0656 26.741 34.3675L24.4835 35.7048L26.7104 39.4688L28.9752 38.13C29.3821 38.4377 29.8283 38.6915 30.311 38.8854V41.5221H34.686V38.8854C35.1688 38.6915 35.615 38.4377 36.0219 38.13L38.2867 39.4688L40.5135 35.7048L38.256 34.3675C38.3071 34.0642 38.3319 33.7813 38.3319 33.4998C38.3319 33.2183 38.3071 32.934 38.256 32.6321L40.5135 31.2948L38.2867 27.5308ZM36.576 31.9496C36.7598 32.4323 36.8735 32.9515 36.8735 33.4998C36.8735 34.0583 36.7583 34.5892 36.5673 35.0806L38.5171 36.2181L37.7733 37.4723L35.8308 36.3013C35.1775 37.0785 34.2704 37.6254 33.2277 37.8019V40.0638H31.7694V37.8019C30.731 37.6254 29.8269 37.0815 29.1735 36.31L27.2238 37.4723L26.48 36.2181L28.424 35.0602C28.2373 34.5746 28.1235 34.0525 28.1235 33.5013C28.1235 32.9442 28.2387 32.4163 28.4283 31.9263L26.48 30.7858L27.2238 29.5317L29.1692 30.6983C29.8225 29.924 30.7281 29.3785 31.7694 29.2021V26.9402H33.2277V29.2021C34.2704 29.3785 35.1775 29.9269 35.8323 30.7042L37.7733 29.5331L38.5171 30.7873L36.576 31.954V31.9496ZM45.6235 29.1248C45.4981 29.1248 45.3785 29.151 45.256 29.1627L42.3715 23.8894C43.4535 23.0917 44.1652 21.82 44.1652 20.3763C44.1652 17.9642 42.2023 16.0013 39.7902 16.0013C37.6275 16.0013 35.8381 17.5821 35.4896 19.6471H29.509C29.159 17.5821 27.371 16.0013 25.2083 16.0013C22.7963 16.0013 20.8333 17.9642 20.8333 20.3763C20.8333 21.82 21.545 23.0931 22.6271 23.8894L19.7425 29.1627C19.6185 29.1525 19.5004 29.1248 19.375 29.1248C16.9629 29.1248 15 31.0877 15 33.4998C15 35.9119 16.9629 37.8748 19.375 37.8748C19.4975 37.8748 19.6127 37.8485 19.7323 37.8383L22.6256 43.1117C21.5435 43.9094 20.8319 45.181 20.8319 46.6248C20.8319 49.0369 22.7948 50.9998 25.2069 50.9998C27.3696 50.9998 29.159 49.419 29.5075 47.354H35.4881C35.8381 49.419 37.626 50.9998 39.7888 50.9998C42.2008 50.9998 44.1638 49.0369 44.1638 46.6248C44.1638 45.1694 43.4419 43.886 42.3452 43.0898L45.2633 37.8383C45.3844 37.8485 45.4996 37.8748 45.6221 37.8748C48.0342 37.8748 49.9971 35.9119 49.9971 33.4998C49.9971 31.0877 48.0356 29.1248 45.6235 29.1248ZM39.7902 17.4581C41.3988 17.4581 42.7069 18.7663 42.7069 20.3748C42.7069 21.9833 41.3988 23.2915 39.7902 23.2915C38.1817 23.2915 36.8735 21.9833 36.8735 20.3748C36.8735 18.7663 38.1817 17.4581 39.7902 17.4581ZM22.2902 20.3748C22.2902 18.7663 23.5983 17.4581 25.2069 17.4581C26.8154 17.4581 28.1235 18.7663 28.1235 20.3748C28.1235 21.9833 26.8154 23.2915 25.2069 23.2915C23.5983 23.2915 22.2902 21.9833 22.2902 20.3748ZM19.3735 36.4165C17.765 36.4165 16.4569 35.1083 16.4569 33.4998C16.4569 31.8913 17.765 30.5831 19.3735 30.5831C20.9821 30.5831 22.2902 31.8913 22.2902 33.4998C22.2902 35.1083 20.9821 36.4165 19.3735 36.4165ZM25.2069 49.5415C23.5983 49.5415 22.2902 48.2333 22.2902 46.6248C22.2902 45.0163 23.5983 43.7081 25.2069 43.7081C26.8154 43.7081 28.1235 45.0163 28.1235 46.6248C28.1235 48.2333 26.8154 49.5415 25.2069 49.5415ZM42.7069 46.6248C42.7069 48.2333 41.3988 49.5415 39.7902 49.5415C38.1817 49.5415 36.8735 48.2333 36.8735 46.6248C36.8735 45.0163 38.1817 43.7081 39.7902 43.7081C41.3988 43.7081 42.7069 45.0163 42.7069 46.6248ZM41.0313 42.451C40.6346 42.3329 40.2248 42.2498 39.7902 42.2498C37.6275 42.2498 35.8381 43.8306 35.4896 45.8956H29.509C29.159 43.8306 27.371 42.2498 25.2083 42.2498C24.7621 42.2498 24.3392 42.3373 23.9338 42.4613L21.1935 37.4665C22.6985 36.7738 23.7515 35.2615 23.7515 33.4983C23.7515 31.7352 22.7015 30.2288 21.2008 29.5346L23.9338 24.5369C24.3406 24.6623 24.7621 24.7483 25.2083 24.7483C27.371 24.7483 29.1604 23.1675 29.509 21.1025H35.4896C35.8396 23.1675 37.6275 24.7483 39.7902 24.7483C40.2365 24.7483 40.6594 24.6608 41.0648 24.5369L43.7977 29.5346C42.2971 30.2288 41.2471 31.7396 41.2471 33.4983C41.2471 35.2571 42.2985 36.7694 43.8006 37.4635L41.0298 42.4496L41.0313 42.451ZM45.6235 36.4165C44.015 36.4165 42.7069 35.1083 42.7069 33.4998C42.7069 31.8913 44.015 30.5831 45.6235 30.5831C47.2321 30.5831 48.5402 31.8913 48.5402 33.4998C48.5402 35.1083 47.2321 36.4165 45.6235 36.4165ZM32.4985 30.5831C30.89 30.5831 29.5819 31.8913 29.5819 33.4998C29.5819 35.1083 30.89 36.4165 32.4985 36.4165C34.1071 36.4165 35.4152 35.1083 35.4152 33.4998C35.4152 31.8913 34.1071 30.5831 32.4985 30.5831ZM32.4985 34.9581C31.6935 34.9581 31.0402 34.3033 31.0402 33.4998C31.0402 32.6963 31.6935 32.0415 32.4985 32.0415C33.3035 32.0415 33.9569 32.6963 33.9569 33.4998C33.9569 34.3033 33.3035 34.9581 32.4985 34.9581Z" fill="white"/>
</g>
<defs>
<filter id="filter0_d_6849_10058" x="0" y="0" width="74" height="74" filterUnits="userSpaceOnUse" color-interpolation-filters="sRGB">
<feFlood flood-opacity="0" result="BackgroundImageFix"/>
<feColorMatrix in="SourceAlpha" type="matrix" values="0 0 0 0 0 0 0 0 0 0 0 0 0 0 0 0 0 0 127 0" result="hardAlpha"/>
<feOffset dx="4" dy="4"/>
<feGaussianBlur stdDeviation="2"/>
<feComposite in2="hardAlpha" operator="out"/>
<feColorMatrix type="matrix" values="0 0 0 0 0.4 0 0 0 0 0.4 0 0 0 0 0.4 0 0 0 0.15 0"/>
<feBlend mode="normal" in2="BackgroundImageFix" result="effect1_dropShadow_6849_10058"/>
<feBlend mode="normal" in="SourceGraphic" in2="effect1_dropShadow_6849_10058" result="shape"/>
</filter>
<clipPath id="clip0_6849_10058">
<rect width="35" height="35" fill="white" transform="translate(15 16)"/>
</clipPath>
</defs>
</svg>
