<svg width="40" height="40" viewBox="0 0 40 40" fill="none" xmlns="http://www.w3.org/2000/svg">
<g clip-path="url(#clip0_3271_4413)">
<path d="M21.6667 8.33333C21.6667 9.25333 20.92 10 20 10C19.08 10 18.3333 9.25333 18.3333 8.33333C18.3333 7.41333 19.08 6.66667 20 6.66667C20.92 6.66667 21.6667 7.41333 21.6667 8.33333ZM28.435 10.4683L25.8667 14.7583L23.61 13.4083C23.2633 13.655 22.8917 13.8633 22.5 14.035V16.6667H17.5V14.035C17.1083 13.8633 16.7367 13.6533 16.39 13.4083L14.1333 14.7583L11.565 10.4683L13.805 9.12833C13.7317 8.58667 13.7317 8.08167 13.805 7.54L11.565 6.2L14.1333 1.91L16.39 3.26C16.7367 3.01333 17.1083 2.80333 17.5 2.63333V0H22.5V2.63167C22.8917 2.80333 23.2633 3.01333 23.61 3.25833L25.8667 1.90833L28.435 6.19833L26.195 7.53833C26.2683 8.08 26.2683 8.585 26.195 9.12667L28.435 10.4683ZM24.3183 6.71833L26.15 5.62333L25.2933 4.19333L23.4533 5.295C22.7367 4.575 21.825 4.06333 20.835 3.81V1.66667H19.1683V3.81C18.1767 4.065 17.2667 4.575 16.55 5.295L14.71 4.19333L13.8533 5.62333L15.685 6.71833C15.3517 7.79833 15.3517 8.86833 15.685 9.94833L13.8533 11.0433L14.71 12.4733L16.55 11.3717C17.2667 12.0917 18.1783 12.6033 19.1683 12.855V15H20.835V12.855C21.8267 12.6033 22.7367 12.0917 23.4533 11.3717L25.2933 12.4733L26.15 11.0433L24.3183 9.94833C24.6517 8.86833 24.6517 7.79833 24.3183 6.71833ZM5.83333 33.3333C3.995 33.3333 2.5 31.8383 2.5 30C2.5 28.1617 3.995 26.6667 5.83333 26.6667C7.67167 26.6667 9.16667 28.1617 9.16667 30C9.16667 31.8383 7.67167 33.3333 5.83333 33.3333ZM5.83333 31.6667C6.75333 31.6667 7.5 30.9183 7.5 30C7.5 29.0817 6.75333 28.3333 5.83333 28.3333C4.91333 28.3333 4.16667 29.0817 4.16667 30C4.16667 30.9183 4.91333 31.6667 5.83333 31.6667ZM9.16667 35H2.5C1.12167 35 0 36.1217 0 37.5V40H1.66667V37.5C1.66667 37.04 2.04167 36.6667 2.5 36.6667H9.16667C9.625 36.6667 10 37.04 10 37.5V40H11.6667V37.5C11.6667 36.1217 10.545 35 9.16667 35ZM40 29.1667V40H26.6667V29.1667C26.6667 27.7883 27.7883 26.6667 29.1667 26.6667H37.5C38.8783 26.6667 40 27.7883 40 29.1667ZM38.3333 29.1667C38.3333 28.7067 37.9583 28.3333 37.5 28.3333H29.1667C28.7083 28.3333 28.3333 28.7067 28.3333 29.1667V38.3333H38.3333V29.1667ZM30.8333 31.6667H35.8333V30H30.8333V31.6667ZM16.1117 32.6667L19.78 30.7217L18.9983 29.2483L14.5383 31.6133C13.5217 32.1483 13.1733 33.5733 13.8333 34.5233L16.6817 38.695L18.0583 37.7567L15.685 34.2817C17.0717 34.7567 18.5217 35.0017 19.9983 35.0017C21.1383 35.0017 22.2533 34.8317 23.3317 34.55V32.835C22.2617 33.1567 21.1417 33.335 19.9983 33.335C18.6633 33.335 17.3583 33.1083 16.11 32.6683L16.1117 32.6667ZM9.64 14.3167C9.12333 14.1 8.53833 14.105 8.02167 14.335L3.43333 16.45L4.13 17.9633L7.83333 16.2567C7.07833 17.9433 6.66833 19.7817 6.66833 21.6667C6.66833 22.2617 6.72167 22.8483 6.79833 23.43C7.41667 23.52 8.01 23.68 8.56 23.9283C8.41333 23.1883 8.33333 22.4317 8.33333 21.6667C8.33333 19.9583 8.73 18.2983 9.435 16.7783L10.7817 20.83L12.3633 20.305L10.7717 15.5167C10.585 14.9783 10.1717 14.5417 9.63833 14.3183L9.64 14.3167ZM28.26 18.9183L27.345 20.3117L31.5667 23.0817C32.5333 23.7167 33.9383 23.3317 34.4533 22.2967L36.7383 17.79L35.25 17.0367L33.2933 20.895C33.1317 18.0933 32.11 15.52 30.475 13.4433C30.2083 13.9883 29.9083 14.51 29.5633 15.0033C30.7867 16.7533 31.515 18.8583 31.6217 21.125L28.26 18.9183Z" fill="#021D78"/>
</g>
<rect x="0.5" y="0.5" width="39" height="39" stroke="white"/>
<defs>
<clipPath id="clip0_3271_4413">
<rect width="40" height="40" fill="white"/>
</clipPath>
</defs>
</svg>
