<svg width="40" height="24" viewBox="0 0 40 24" fill="none" xmlns="http://www.w3.org/2000/svg">
<path d="M16.6667 1.99998C16.6667 2.91665 15.9167 3.66665 15 3.66665H10V22C10 22.9166 9.25 23.6666 8.33333 23.6666C7.41667 23.6666 6.66667 22.9166 6.66667 22V3.66665H1.66667C0.75 3.66665 0 2.91665 0 1.99998C0 1.08331 0.75 0.333313 1.66667 0.333313H15C15.9167 0.333313 16.6667 1.08331 16.6667 1.99998ZM36.5667 0.333313C35.2833 0.333313 34.1167 1.03331 33.5333 2.14998L29.1833 10.1666L24.8333 2.16665C24.2333 1.03331 23.0667 0.333313 21.7833 0.333313C19.8833 0.333313 18.35 1.88331 18.35 3.76665V22C18.35 22.9166 19.1 23.6666 20.0167 23.6666C20.9333 23.6666 21.6833 22.9166 21.6833 22V3.76665L21.9 3.73331L27.7167 14.45C28.3 15.5166 30.0667 15.5166 30.65 14.45L36.4667 3.73331C36.5 3.73331 36.6833 3.78331 36.6833 3.76665V22C36.6833 22.9166 37.4333 23.6666 38.35 23.6666C39.2667 23.6666 40.0167 22.9166 40.0167 22V3.76665C40.0167 1.86665 38.4667 0.333313 36.5833 0.333313H36.5667Z" fill="#021D78"/>
</svg>
